<svg width="296" height="319" viewBox="0 0 296 319" fill="none" xmlns="http://www.w3.org/2000/svg">
<path d="M223.226 294.725C223.226 297.662 220.996 300.157 218.24 300.301L43.031 309.402C39.8137 309.569 37.199 307.125 37.199 303.943V43.9948C37.199 40.8126 39.8137 38.392 43.031 38.5886L45.3779 38.4634L218.24 49.2781C220.996 49.4466 223.226 51.9619 223.226 54.8938V294.725Z" fill="#97A6B7"/>
<path d="M226.678 294.606C226.678 297.541 224.448 300.037 221.691 300.181L46.4869 309.281C43.2696 309.449 40.656 307.005 40.656 303.823V43.8778C40.656 40.6956 43.2696 38.2751 46.4869 38.4716L221.695 49.1612C224.453 49.3297 226.683 51.845 226.683 54.7768L226.678 294.606Z" fill="#D8DEE8"/>
<g style="mix-blend-mode:multiply">
<path d="M91.9372 62.9099C87.5815 68.5092 86.9591 79.0853 94.4256 83.4409C110.601 93.3946 131.753 90.2837 147.306 79.7077C158.754 71.6949 153.879 56.8392 150.603 44.8241L116.144 42.7183C113.178 51.0142 97.3984 55.6283 91.9372 62.9099Z" fill="#D8DEE8"/>
</g>
<path d="M218.437 284.201C218.437 286.8 216.455 288.998 214.007 289.115L55.3654 296.539C52.5494 296.671 50.261 294.511 50.261 291.715V69.208C50.261 66.413 52.5494 64.2615 55.3654 64.4031L214.007 72.396C216.455 72.513 218.437 74.7265 218.437 77.326V284.201Z" fill="white"/>
<path d="M174.944 65.319C174.71 63.9548 173.644 62.9908 172.293 62.9183L163.945 62.4702C160.172 62.2678 157.443 59.1219 157.627 55.1664L158.042 46.0071C158.118 44.313 156.948 42.9548 155.325 42.8483L152.634 42.681C150.583 42.5535 149.18 40.7179 149.504 38.5804C150.076 34.7992 147.59 31.5363 143.941 31.2918C140.292 31.0473 136.838 33.9312 136.262 37.7346C136.096 38.7836 135.556 39.737 134.741 40.4184C133.953 41.094 132.937 41.4427 131.9 41.3929L129.149 41.2221C127.485 41.118 125.889 42.323 125.448 44.0182L123.058 53.1974C122.025 57.1658 118.279 60.011 114.353 59.7993L105.568 59.3313C104.135 59.2541 102.718 60.114 102.041 61.4734L95.7358 74.1238L96.2775 74.8164L177.144 77.9623L174.944 65.319ZM142.737 39.1759C141.665 39.1081 140.931 38.1511 141.1 37.0385C141.268 35.9259 142.269 35.08 143.346 35.1502C144.422 35.2204 145.149 36.1774 144.984 37.2877C144.819 38.3979 143.809 39.2438 142.737 39.1759Z" fill="url(#paint0_linear)"/>
<path d="M175.485 66.0114C175.251 64.6472 174.185 63.6832 172.834 63.6107L164.485 63.1626C160.712 62.959 157.984 59.8131 158.168 55.8588L158.582 46.6983C158.658 45.0054 157.488 43.6472 155.864 43.5465L153.173 43.3792C151.122 43.2517 149.72 41.4161 150.044 39.2845C150.616 35.5033 148.13 32.2404 144.481 31.9959C140.832 31.7514 137.377 34.6353 136.801 38.4387C136.636 39.4877 136.095 40.4411 135.28 41.1225C134.493 41.7982 133.476 42.1468 132.44 42.097L129.688 41.925C128.025 41.8221 126.429 43.0271 125.988 44.7223L123.585 53.8957C122.552 57.864 118.807 60.7081 114.879 60.4975L106.094 60.0296C104.661 59.9523 103.245 60.8122 102.567 62.1717L96.2625 74.822L177.67 78.6594L175.485 66.0114ZM143.279 39.8683C142.206 39.8005 141.473 38.8423 141.641 37.7309C141.81 36.6194 142.811 35.7724 143.889 35.8426C144.966 35.9128 145.69 36.8686 145.527 37.9801C145.363 39.0915 144.351 39.9362 143.279 39.8683Z" fill="#97A6B7"/>
<g style="mix-blend-mode:multiply" opacity="0.3">
<path d="M172.838 63.6108L164.49 63.1627C163.314 63.1095 162.175 62.7399 161.193 62.0929C160.21 61.4459 159.42 60.5455 158.907 59.4868C151.17 61.1048 143.019 59.4131 134.869 61.044C129.269 62.2876 129.892 70.9977 123.67 71.6201C114.746 72.8263 105.917 72.907 97.1808 72.9959L96.2717 74.8186L177.679 78.656L175.489 66.0115C175.248 64.6473 174.185 63.6833 172.838 63.6108Z" fill="#97A6B7"/>
</g>
<path d="M206.796 108.237L64.863 104.792V86.1958L206.796 90.6193V108.237Z" fill="#D8DEE8"/>
<path d="M206.796 166.486L64.863 166.271V118.833L206.796 121.541V166.486ZM67.5199 163.623L204.139 163.963V124.017L67.5199 121.548V163.623Z" fill="#D8DEE8"/>
<path d="M97.8792 164.753H94.8433V120.536L97.8792 120.586V164.753Z" fill="#D8DEE8"/>
<path d="M205.278 138.421L96.3618 137.058V134.433L205.278 135.904V138.421Z" fill="#D8DEE8"/>
<path d="M205.278 152.092L96.3618 151.311V148.686L205.278 149.574V152.092Z" fill="#D8DEE8"/>
<path d="M177.574 166.072L174.538 166.069V122.018L177.574 122.066V166.072Z" fill="#D8DEE8"/>
<path d="M206.796 250.977L64.863 255.452V208.017L206.796 206.037V250.977ZM67.5199 252.708L204.139 248.539V208.591L67.5199 210.631V252.708Z" fill="#D8DEE8"/>
<path d="M97.8792 252.908L94.8433 253.006V208.724L97.8792 208.675V252.908Z" fill="#D8DEE8"/>
<path d="M205.278 222.963L96.3618 225.202V222.575L205.278 220.446V222.963Z" fill="#D8DEE8"/>
<path d="M205.278 236.636L96.3618 239.454V236.829L205.278 234.117V236.636Z" fill="#D8DEE8"/>
<path d="M177.574 251.54L174.538 251.624V207.572L177.574 207.533V251.54Z" fill="#D8DEE8"/>
<path d="M206.796 181.585L64.863 182.209V176.137L206.796 175.832V181.585Z" fill="#D8DEE8"/>
<path d="M206.796 195.248L64.863 196.629V190.557L206.796 189.495V195.248Z" fill="#D8DEE8"/>
<path d="M206.796 266.078L64.863 271.391V265.319L206.796 260.326V266.078Z" fill="#D8DEE8"/>
<path d="M148.036 13.2188C147.731 13.2186 147.43 13.2785 147.148 13.3949C146.867 13.5114 146.611 13.6822 146.396 13.8975C146.18 14.1128 146.009 14.3685 145.893 14.6499C145.776 14.9313 145.716 15.2329 145.716 15.5375V202.051H150.355V15.5375C150.355 14.9226 150.111 14.3328 149.676 13.8979C149.241 13.463 148.651 13.2188 148.036 13.2188V13.2188Z" fill="url(#paint1_linear)"/>
<path d="M124.798 101.698C126.344 79.5702 129.483 60.4564 133.623 46.8151C135.74 39.8391 138.103 34.3521 140.61 30.6307C143.144 26.8704 145.66 25.147 148.036 25.147C150.413 25.147 152.93 26.8706 155.465 30.6308C157.973 34.3521 160.335 39.8391 162.453 46.8151C166.593 60.4528 169.732 79.5599 171.279 101.68C156.39 97.0748 140.912 96.8964 124.798 101.698Z" fill="url(#paint2_radial)" stroke="#E8501D" stroke-width="2"/>
<path d="M128.151 27.0421C103.113 37.0916 83.4604 65.6489 76.1601 101.694C67.1848 98.1663 57.6613 98.0339 47.5964 101.486C58.0559 63.7145 89.2483 34.5592 128.151 27.0421Z" fill="url(#paint3_radial)" stroke="#E8501D" stroke-width="2"/>
<path d="M142.448 25.4603C141.216 26.5105 140.051 27.8848 138.953 29.5132C136.287 33.4714 133.855 39.1732 131.712 46.2342C127.5 60.1113 124.337 79.4621 122.789 101.764C108.319 97.5534 93.4559 97.4803 78.206 101.671C86.8321 59.678 112.197 28.8645 142.448 25.4603Z" fill="url(#paint4_radial)" stroke="#E8501D" stroke-width="2"/>
<path d="M219.912 101.694C212.619 65.6505 192.968 37.0944 167.929 27.0436C206.828 34.5629 238.017 63.717 248.476 101.486C238.411 98.0339 228.887 98.1663 219.912 101.694Z" fill="url(#paint5_radial)" stroke="#E8501D" stroke-width="2"/>
<path d="M157.123 29.5131C156.026 27.8848 154.86 26.5108 153.627 25.4607C183.877 28.8669 209.24 59.6796 217.866 101.671C202.616 97.4803 187.754 97.5534 173.284 101.763C171.739 79.4621 168.578 60.1114 164.366 46.2342C162.223 39.1732 159.791 33.4713 157.123 29.5131Z" fill="url(#paint6_radial)" stroke="#E8501D" stroke-width="2"/>
<path d="M135.284 224.448H130.218C121.171 224.448 113.811 217.088 113.811 208.042V202.051C113.828 201.096 114.22 200.186 114.901 199.516C115.583 198.847 116.5 198.472 117.455 198.472C118.41 198.472 119.327 198.847 120.008 199.516C120.69 200.186 121.081 201.096 121.098 202.051V208.044C121.1 210.464 122.062 212.783 123.773 214.493C125.484 216.203 127.805 217.164 130.224 217.164H135.284C137.702 217.162 140.02 216.201 141.73 214.491C143.439 212.781 144.401 210.462 144.402 208.044V183.16C144.402 182.194 144.786 181.267 145.469 180.584C146.152 179.901 147.079 179.517 148.045 179.517C149.011 179.517 149.938 179.901 150.621 180.584C151.305 181.267 151.688 182.194 151.688 183.16V208.044C151.683 217.088 144.324 224.448 135.284 224.448Z" fill="url(#paint7_linear)"/>
<path d="M48.2955 119.056C45.917 119.13 43.567 118.521 41.524 117.301C35.3433 113.595 26.2121 107.473 17.9957 99.4687C7.57055 89.3103 1.58056 78.9752 0.274929 68.8355L0.255042 68.6764L0 25.3893C0 16.8348 5.57935 9.89135 16.0548 5.32866C24.7122 1.55918 36.1775 -0.309189 48.3002 0.0417874C60.2778 0.392764 71.3605 2.86013 79.564 6.97708C89.3059 11.8755 94.4267 18.7547 94.4267 26.9137L94.1927 68.2728L94.174 68.4248C92.976 78.1352 87.4656 88.179 77.7249 98.3327C69.9121 106.477 61.0827 112.931 55.0202 116.934C53.0194 118.253 50.6907 118.987 48.2955 119.056Z" fill="url(#paint8_linear)"/>
<path d="M96.1943 26.9138L95.9674 68.274L95.9463 68.4238C94.7635 78.1341 89.3257 88.1814 79.7137 98.334C72.4005 106.055 64.1864 112.268 58.2526 116.296L57.3097 116.93C55.3418 118.25 53.0413 118.988 50.6727 119.059C48.3224 119.132 46.0013 118.523 43.9901 117.304C37.889 113.601 28.8782 107.484 20.7742 99.4723C10.4871 89.3115 4.57312 78.98 3.28036 68.8344L3.26047 68.6765L3.01245 25.3929C3.01245 16.8373 8.51108 9.89495 18.852 5.32991C25.5989 2.35481 34.0727 0.562485 43.2261 0.115575C45.6654 -0.00141675 48.1562 -0.0306653 50.6727 0.0418698C62.4889 0.392846 73.43 2.86255 81.5212 6.98067C91.1461 11.8745 96.1943 18.7548 96.1943 26.9138Z" fill="url(#paint9_linear)"/>
<path d="M5.86816 25.4231L6.12438 68.4891C8.9591 90.4614 34.7874 108.252 46.0304 115.011C49.2523 116.947 53.3716 116.833 56.5702 114.728C67.5827 107.481 91.9919 89.2388 94.5997 68.1124L94.8336 26.868C94.8278 -3.73246 5.86816 -6.52974 5.86816 25.4231Z" fill="url(#paint10_linear)"/>
<path d="M51.3105 108.373C51.0176 108.381 50.7286 108.304 50.4775 108.153C45.8458 105.345 36.869 99.4746 29.0598 91.8034C20.6247 83.5169 15.759 75.4608 14.6428 67.8949L14.396 25.5437C14.4065 21.4794 17.6226 18.0013 23.9285 15.2192C30.9679 12.1119 40.9649 10.4822 51.3105 10.7279C61.5532 10.9712 71.2577 13.0326 77.9847 16.3692C83.9326 19.3198 86.9393 22.8038 86.9487 26.7219L86.7147 67.6083C85.6734 74.9308 81.1072 82.8243 73.0898 91.1237C65.552 98.9247 56.746 105.11 52.1482 108.117C51.8985 108.279 51.6082 108.368 51.3105 108.373V108.373Z" fill="url(#paint11_linear)"/>
<path d="M50.254 105.479C45.5743 102.598 37.2609 97.0364 30.005 89.8952C22.0776 82.093 17.4869 74.6067 16.4117 67.6796L16.166 25.573C16.173 22.6669 18.844 20.0018 24.084 17.6819C30.7526 14.729 40.3062 13.1741 50.2528 13.3964C60.1059 13.6187 69.3916 15.5643 75.7735 18.7219C80.7316 21.1787 83.2399 23.8508 83.2469 26.6844L83.013 67.421C82.001 74.1411 77.6746 81.4917 70.1076 89.3091C63.0857 96.5673 54.9103 102.403 50.254 105.479Z" fill="url(#paint12_linear)"/>
<path d="M57.2934 32.6758H41.8481V76.9784H57.2934V32.6758Z" fill="white"/>
<path d="M68.6744 46.0889H30.4683V60.3151H68.6744V46.0889Z" fill="white"/>
<g style="mix-blend-mode:soft-light" opacity="0.2">
<path d="M58.2526 116.296L57.3097 116.93C55.3418 118.25 53.0413 118.988 50.6727 119.059C48.3224 119.132 46.0013 118.523 43.9901 117.304C37.889 113.602 28.8782 107.484 20.7742 99.4724C10.4871 89.3117 4.57312 78.9801 3.28036 68.8345L3.26047 68.6766L3.01245 25.393C3.01245 16.8374 8.51107 9.89509 18.852 5.33006C25.5989 2.35495 34.0727 0.562633 43.2261 0.115723C43.7585 0.912439 44.3317 1.78169 44.9214 2.71295C46.3966 5.04577 47.9983 7.75648 49.518 10.7082C49.9731 11.5903 50.4247 12.4923 50.8587 13.4142C54.9534 22.0354 57.9438 32.1564 55.3957 40.533C50.7745 55.7174 40.9705 83.3404 50.8026 105.113C51.2456 106.1 51.7319 107.075 52.2614 108.037C53.5422 110.368 55.048 112.568 56.7575 114.605C57.236 115.173 57.732 115.734 58.2526 116.296Z" fill="white"/>
</g>
<path d="M255.174 315.917C254.852 315.931 254.545 315.938 254.251 315.938C242.594 315.938 213.196 318.19 204.513 292.95C196.535 269.77 226.283 234.22 231.187 228.585C231.622 228.083 231.862 227.819 231.862 227.819C231.862 227.819 230.567 226.865 256.787 225.855C286.901 248.95 291.66 267.233 291.66 267.233C301.238 304.694 267.665 315.405 255.174 315.917Z" fill="url(#paint13_linear)"/>
<path d="M255.174 315.917C254.852 315.931 254.545 315.938 254.251 315.938C242.594 315.938 213.196 318.19 204.513 292.95C196.535 269.77 226.283 234.22 231.187 228.585C231.622 228.083 231.862 227.819 231.862 227.819C231.862 227.819 230.567 226.865 256.787 225.855C286.901 248.95 291.66 267.233 291.66 267.233C301.238 304.694 267.665 315.405 255.174 315.917Z" fill="url(#paint14_radial)"/>
<path style="mix-blend-mode:multiply" opacity="0.3" d="M255.174 315.917C254.852 315.931 254.545 315.938 254.251 315.938C242.594 315.938 213.196 318.19 204.513 292.95C196.535 269.77 226.283 234.22 231.187 228.585C232.388 228.38 233.619 228.456 234.786 228.806C235.222 228.943 173.738 307.615 255.174 315.917Z" fill="url(#paint15_linear)"/>
<path d="M226.875 208.017C226.875 208.017 231.765 199.702 238.669 202.764C245.572 205.827 251.134 208.127 254.779 205.938C258.423 203.749 260.327 202.016 261.341 206.822C262.354 211.628 248.545 223.446 248.545 223.446C248.545 223.446 227.45 223.442 226.875 208.017Z" fill="url(#paint16_linear)"/>
<path style="mix-blend-mode:multiply" opacity="0.2" d="M226.875 211.662C226.875 211.662 231.765 203.345 238.669 206.409C245.572 209.473 251.134 211.771 254.779 209.582C258.423 207.393 260.327 205.659 261.341 210.466C262.354 215.273 248.545 227.087 248.545 227.087C248.545 227.087 227.45 227.087 226.875 211.662Z" fill="url(#paint17_linear)"/>
<path d="M262.377 219.813C260.421 222.72 258.138 225.212 256.13 226.238C253.61 227.525 249.122 228.304 244.653 228.63C240.184 228.957 235.725 228.824 233.281 228.291C232.79 228.2 232.314 228.043 231.866 227.823C231.866 227.823 223.964 215.271 223.847 209.421C223.808 207.562 224.556 206.38 226.587 206.484C235.027 206.92 235.218 211.631 240.977 210.313C246.735 208.994 250.949 200.251 254.782 205.937C258.615 211.623 262.737 203.528 266.192 206.156C268.421 207.848 265.939 214.518 262.377 219.813Z" fill="url(#paint18_linear)"/>
<path d="M231.398 227.065C231.398 227.065 246.928 231.517 257.083 225.661C257.958 226.767 258.413 227.122 258.413 227.122C258.413 227.122 250.952 233.935 230.772 229.07C230.772 229.066 231.262 227.623 231.398 227.065Z" fill="url(#paint19_linear)"/>
<path style="mix-blend-mode:multiply" opacity="0.2" d="M262.377 219.813C260.421 222.72 258.138 225.212 256.13 226.238C253.61 227.525 249.122 228.304 244.653 228.631L233.281 228.291C232.79 228.2 232.314 228.043 231.866 227.823C231.866 227.823 223.964 215.271 223.847 209.422C223.943 209.319 227.048 206.037 230.772 213.072C234.558 220.217 235.925 226.444 240.408 223.446C244.891 220.447 251.809 208.665 253.027 214.213C254.245 219.76 249.757 225.099 253.027 224.217C255.575 223.525 260.488 219.717 262.377 219.813Z" fill="url(#paint20_linear)"/>
<path opacity="0.9" d="M251.42 246.651C252.378 246.617 253.18 247.277 253.217 248.126L253.341 251.031C255.265 250.988 257.19 251.048 259.108 251.211C260.528 251.33 261.94 251.507 263.344 251.741C264.185 251.88 264.787 252.551 264.747 253.325L264.525 257.037C264.468 258.026 263.41 258.736 262.367 258.459C261.423 258.207 260.465 258.012 259.498 257.874C257.715 257.629 255.913 257.556 254.116 257.656L253.624 257.682L253.984 266.167C259.076 266.774 262.844 267.985 265.332 269.801C267.821 271.617 269.13 274.103 269.303 277.298C269.49 280.77 268.327 283.747 265.793 286.231C263.229 288.746 259.525 290.484 254.649 291.435L254.793 294.87C254.831 295.785 254.059 296.614 253.066 296.721H253.033C252.037 296.827 251.197 296.166 251.161 295.247L251.028 291.854L250.229 291.934C248.013 292.16 245.787 292.258 243.56 292.227C242.007 292.204 240.456 292.1 238.913 291.917C237.997 291.808 237.349 291.115 237.409 290.265L237.76 285.19C237.836 284.099 239.023 283.308 240.177 283.552C241.52 283.841 242.879 284.054 244.246 284.19C246.39 284.402 248.548 284.43 250.697 284.275L250.346 274.553C245.404 274.118 241.668 272.997 239.179 271.191C236.689 269.385 235.382 266.818 235.291 263.528C235.196 260.142 236.439 257.38 238.995 255.243C241.526 253.129 245.158 251.792 249.864 251.225L249.747 248.25C249.708 247.404 250.46 246.686 251.42 246.651ZM250.133 258.03C248.644 258.313 247.493 258.82 246.679 259.551C245.866 260.283 245.476 261.186 245.509 262.26C245.546 263.274 245.966 264.073 246.768 264.657C247.571 265.241 248.794 265.631 250.439 265.827L250.133 258.03ZM253.948 274.859L254.323 283.757C255.972 283.534 257.22 283.007 258.067 282.175C258.914 281.344 259.307 280.286 259.244 279C259.19 277.83 258.74 276.913 257.894 276.248C257.048 275.584 255.731 275.121 253.944 274.859H253.948Z" fill="url(#paint21_linear)"/>
<path d="M292.783 179.697C292.783 189.993 284.731 198.097 274.439 197.781C263.728 197.452 254.721 188.202 254.721 177.132C254.721 166.062 263.73 158.027 274.439 159.142C284.731 160.214 292.783 169.4 292.783 179.697Z" fill="url(#paint22_linear)"/>
<path d="M295.563 178.81C295.563 189.106 287.511 197.209 277.219 196.893C266.508 196.564 257.501 187.313 257.501 176.244C257.501 165.174 266.509 157.139 277.219 158.254C287.512 159.325 295.563 168.512 295.563 178.81Z" fill="url(#paint23_linear)"/>
<path d="M294.756 178.756C294.756 188.601 287.052 196.332 277.22 196.013C267.006 195.682 258.432 186.854 258.432 176.307C258.432 165.76 267.006 158.088 277.22 159.134C287.052 160.141 294.756 168.911 294.756 178.756Z" fill="url(#paint24_linear)"/>
<path d="M294.178 178.717C294.178 188.237 286.723 195.703 277.22 195.384C267.362 195.053 259.094 186.526 259.094 176.351C259.094 166.177 267.368 158.764 277.22 159.763C286.723 160.725 294.178 169.197 294.178 178.717Z" fill="url(#paint25_linear)"/>
<path d="M277.123 163.001C277.373 163.031 277.603 163.15 277.772 163.337C277.94 163.524 278.035 163.766 278.038 164.018V165.773C279.061 165.888 280.077 166.064 281.079 166.3C281.827 166.476 282.568 166.685 283.302 166.927C283.52 166.999 283.708 167.142 283.835 167.333C283.962 167.524 284.022 167.752 284.004 167.98L283.789 170.179C283.78 170.313 283.739 170.443 283.668 170.557C283.597 170.672 283.499 170.767 283.383 170.834C283.267 170.902 283.135 170.94 283.001 170.944C282.866 170.949 282.733 170.921 282.612 170.862C282.126 170.645 281.627 170.459 281.118 170.305C280.2 170.03 279.254 169.854 278.299 169.778L278.04 169.756V174.776C280.678 175.515 282.616 176.507 283.867 177.756C285.119 179.006 285.733 180.548 285.733 182.407C285.733 184.418 285.045 186.03 283.67 187.243C282.294 188.456 280.346 189.141 277.827 189.299V191.234C277.829 191.353 277.807 191.472 277.761 191.583C277.716 191.694 277.648 191.794 277.562 191.878C277.477 191.961 277.375 192.027 277.263 192.07C277.151 192.113 277.032 192.132 276.912 192.127H276.896C276.648 192.114 276.414 192.006 276.243 191.826C276.072 191.645 275.976 191.406 275.976 191.158V189.249L275.569 189.231C274.435 189.183 273.305 189.062 272.186 188.87C271.397 188.734 270.615 188.554 269.846 188.332C269.622 188.27 269.427 188.132 269.294 187.942C269.16 187.753 269.096 187.523 269.112 187.291L269.366 184.466C269.379 184.325 269.425 184.189 269.501 184.069C269.576 183.949 269.679 183.849 269.801 183.777C269.923 183.705 270.061 183.663 270.202 183.655C270.343 183.646 270.485 183.672 270.615 183.729C271.286 183.993 271.973 184.219 272.671 184.404C273.747 184.688 274.847 184.872 275.958 184.952L275.974 179.369C273.442 178.746 271.551 177.817 270.301 176.585C269.051 175.353 268.424 173.772 268.421 171.843C268.421 169.854 269.1 168.321 270.458 167.242C271.808 166.17 273.726 165.637 276.201 165.638V163.847C276.197 163.728 276.22 163.61 276.266 163.501C276.312 163.392 276.381 163.294 276.468 163.213C276.556 163.133 276.66 163.073 276.773 163.036C276.885 162.999 277.005 162.987 277.123 163.001V163.001ZM276.204 169.701C275.424 169.758 274.815 169.973 274.375 170.346C274.159 170.531 273.987 170.763 273.874 171.024C273.76 171.285 273.707 171.568 273.718 171.853C273.711 172.131 273.761 172.407 273.866 172.665C273.97 172.922 274.127 173.156 274.325 173.35C274.73 173.75 275.357 174.07 276.204 174.308V169.701ZM277.827 179.812V184.932C278.679 184.932 279.332 184.729 279.785 184.323C280.239 183.917 280.467 183.342 280.468 182.6C280.488 181.976 280.261 181.37 279.835 180.915C279.411 180.467 278.742 180.099 277.827 179.812Z" fill="url(#paint26_linear)"/>
<path style="mix-blend-mode:multiply" opacity="0.3" d="M274.154 181.047C274.727 175.388 279.927 172.993 279.249 167.788C278.831 164.581 276.399 161.877 273.687 159.765C265.459 160.629 259.097 167.441 259.097 176.351C259.097 186.529 267.365 195.052 277.222 195.383C278.158 195.415 279.095 195.369 280.023 195.247C276.106 191.351 273.66 185.906 274.154 181.047Z" fill="url(#paint27_linear)"/>
<path d="M282.537 127.311C282.537 139.078 273.336 148.335 261.575 147.975C249.334 147.598 239.04 137.028 239.04 124.378C239.04 111.727 249.335 102.545 261.575 103.819C273.335 105.044 282.537 115.543 282.537 127.311Z" fill="url(#paint28_linear)"/>
<path d="M285.716 126.295C285.716 138.063 276.513 147.321 264.752 146.959C252.51 146.584 242.215 136.012 242.215 123.363C242.215 110.714 252.51 101.53 264.749 102.804C276.513 104.029 285.716 114.527 285.716 126.295Z" fill="url(#paint29_linear)"/>
<path d="M284.793 126.233C284.793 137.483 275.988 146.318 264.752 145.955C253.081 145.577 243.282 135.489 243.282 123.435C243.282 111.381 253.081 102.61 264.752 103.811C275.988 104.962 284.793 114.983 284.793 126.233Z" fill="url(#paint30_linear)"/>
<path d="M284.131 126.189C284.131 137.069 275.611 145.6 264.752 145.236C253.486 144.857 244.045 135.114 244.045 123.486C244.045 111.858 253.492 103.388 264.752 104.533C275.611 105.628 284.131 115.31 284.131 126.189Z" fill="url(#paint31_linear)"/>
<path d="M264.641 108.229C264.927 108.263 265.19 108.4 265.383 108.614C265.575 108.828 265.683 109.104 265.687 109.392V111.395C266.855 111.526 268.014 111.727 269.158 111.996C270.012 112.198 270.86 112.437 271.704 112.713C271.952 112.796 272.165 112.959 272.31 113.177C272.455 113.395 272.522 113.655 272.501 113.916L272.256 116.427C272.245 116.58 272.196 116.727 272.115 116.857C272.034 116.987 271.922 117.095 271.79 117.172C271.657 117.249 271.508 117.293 271.355 117.299C271.202 117.305 271.05 117.274 270.912 117.208C270.356 116.96 269.786 116.748 269.203 116.572C268.154 116.258 267.074 116.056 265.981 115.97L265.687 115.946V121.679C268.7 122.522 270.92 123.657 272.346 125.083C273.772 126.509 274.483 128.281 274.479 130.399C274.479 132.697 273.692 134.539 272.12 135.925C270.536 137.32 268.317 138.104 265.452 138.274V140.485C265.454 140.622 265.428 140.758 265.376 140.884C265.324 141.011 265.247 141.126 265.149 141.221C265.051 141.317 264.934 141.392 264.807 141.441C264.679 141.49 264.542 141.512 264.406 141.506H264.387C264.103 141.491 263.836 141.368 263.64 141.161C263.444 140.955 263.334 140.682 263.334 140.397V138.22L262.866 138.199C261.572 138.144 260.282 138.006 259.005 137.787C258.104 137.631 257.212 137.426 256.333 137.173C256.078 137.101 255.855 136.944 255.702 136.727C255.549 136.51 255.477 136.247 255.496 135.982L255.784 132.753C255.848 132.051 256.548 131.65 257.212 131.911C257.979 132.214 258.764 132.472 259.562 132.683C260.792 133.007 262.05 133.217 263.319 133.31L263.336 126.929C260.443 126.213 258.276 125.153 256.854 123.748C255.431 122.343 254.706 120.531 254.706 118.335C254.706 116.061 255.482 114.306 257.034 113.07C258.577 111.845 260.77 111.236 263.597 111.238V109.19C263.595 109.056 263.62 108.922 263.673 108.799C263.726 108.676 263.804 108.565 263.903 108.474C264.001 108.383 264.118 108.315 264.245 108.272C264.373 108.23 264.507 108.215 264.641 108.229V108.229ZM263.588 115.886C262.694 115.952 261.997 116.197 261.497 116.623C260.997 117.049 260.747 117.623 260.747 118.345C260.739 118.663 260.797 118.979 260.916 119.273C261.035 119.568 261.214 119.835 261.441 120.057C261.904 120.514 262.619 120.879 263.588 121.152V115.886ZM265.442 127.44V133.29C266.414 133.29 267.16 133.056 267.68 132.588C268.2 132.12 268.46 131.463 268.459 130.618C268.459 129.845 268.218 129.203 267.735 128.692C267.252 128.181 266.489 127.764 265.446 127.44H265.442Z" fill="url(#paint32_linear)"/>
<path style="mix-blend-mode:multiply" opacity="0.3" d="M261.246 128.853C261.9 122.386 267.843 119.649 267.067 113.7C266.59 110.034 263.811 106.945 260.711 104.532C251.308 105.517 244.039 113.307 244.039 123.485C244.039 135.113 253.486 144.856 264.746 145.235C265.818 145.269 266.89 145.216 267.953 145.076C263.479 140.63 260.683 134.409 261.246 128.853Z" fill="url(#paint33_linear)"/>
<path d="M181.988 166.852C182.393 163.81 182.618 161.938 181.443 160.449C178.818 157.12 170.661 157.589 165.912 161.539C162.403 164.464 163.653 166.87 160.414 169.367C155.753 172.958 151.484 169.016 144.662 171.62C139.272 173.682 133.197 178.98 132.401 186.198C131.981 190.008 132.869 195.856 136.897 198.805C142.542 202.933 150.661 198.678 151.892 201.238C153.19 203.937 144.096 208.551 145.042 213.979C145.715 217.839 151.104 220.089 154.199 220.801C161.621 222.508 170.57 218.733 175.179 212.218C180.191 205.133 174.909 202.103 179.403 184.563C179.879 182.691 180.582 177.411 181.988 166.852Z" fill="url(#paint34_linear)"/>
<path d="M190.077 312.334C190.077 312.334 189.429 313.777 189.284 315.062C189.228 315.561 189.373 316.061 189.685 316.453C189.998 316.846 190.453 317.098 190.951 317.155C193.491 317.447 198.076 317.916 200.845 317.87C204.355 317.812 196.329 313.55 194.385 312.545C194.116 312.406 193.819 312.334 193.517 312.334H190.077Z" fill="url(#paint35_linear)"/>
<path d="M191.115 307.635C190.742 307.791 190.579 312.83 190.579 312.83C190.579 312.83 192.217 313.799 193.302 313.171L195.457 306.889L191.115 307.635Z" fill="url(#paint36_linear)"/>
<path d="M145.122 306.393C144.614 306.68 144.225 307.139 144.024 307.687C143.824 308.235 143.825 308.837 144.028 309.384C144.677 311.139 145.722 313.623 146.845 314.928C148.057 316.332 150.197 316.346 151.54 316.184C151.669 316.167 151.793 316.118 151.897 316.04C152.002 315.963 152.085 315.859 152.139 315.74C152.192 315.621 152.213 315.49 152.201 315.36C152.189 315.231 152.144 315.106 152.07 314.999C151.416 314.052 150.463 312.622 150.014 311.723C149.297 310.281 147.61 304.977 147.61 304.977L145.122 306.393Z" fill="url(#paint37_linear)"/>
<path d="M149.398 301.353L146.734 305.564C146.615 305.753 146.565 305.977 146.594 306.199C146.622 306.42 146.727 306.624 146.891 306.776V306.776C147.07 306.944 147.307 307.037 147.553 307.035C147.798 307.033 148.034 306.937 148.21 306.766L152.363 302.753L149.398 301.353Z" fill="url(#paint38_linear)"/>
<path d="M197.868 220.569C207.344 225.151 205.693 246.554 204.199 265.86C203.045 280.695 200.475 295.386 196.523 309.732L189.261 310.001C188.105 303.793 187.565 297.487 187.647 291.173C187.813 278.791 190.338 271.646 191.274 265.084C192.578 255.949 191.565 242.588 180.784 224.605C190.13 218.613 195.184 219.27 197.868 220.569Z" fill="url(#paint39_linear)"/>
<path style="mix-blend-mode:multiply" opacity="0.3" d="M191.681 287.407C194.159 277.843 198.066 274.748 198.406 264.411C198.757 253.91 194.952 250.116 195.985 240.741C196.704 234.214 199.342 228.834 202.083 224.764C201.016 222.862 199.636 221.422 197.871 220.568C195.181 219.27 190.134 218.612 180.791 224.603C191.571 242.586 192.584 255.948 191.28 265.083C190.344 271.646 187.816 278.79 187.653 291.172C187.571 297.485 188.112 303.792 189.267 309.999L190.934 309.938C189.363 300.386 190.247 292.943 191.681 287.407Z" fill="url(#paint40_linear)"/>
<path d="M172.046 221.237C171.632 226.385 171.096 232.809 170.433 240.199C168.912 257.174 168.438 260.03 166.936 263.869C164.044 271.262 161.239 272.301 156.043 281.217C152.195 287.831 149.255 294.933 147.301 302.332L151.875 306.098C161.895 297.361 170.44 287.065 177.182 275.607C189.258 255.053 192.625 235.584 193.699 224.196L172.046 221.237Z" fill="url(#paint41_linear)"/>
<path d="M172.276 179.322C169.048 181.92 169.047 186.809 169.046 191.783C169.046 197.117 170.149 199.725 170.843 203.648C171.217 205.763 173.065 217.23 168.365 226.795C163.873 235.942 157.275 235.464 154.259 245.036C152.799 249.673 152.472 255.733 154.741 256.903C157.285 258.214 160.445 252.018 168.788 249.188C176.134 246.696 176.744 250.463 184.849 248.32C193.312 246.083 193.824 241.668 205.693 237.557C208.086 236.727 209.016 236.578 209.78 235.513C212.833 231.26 204.47 224.66 200.564 211.566C196.768 198.84 201.043 192.924 194.794 185.651C191.636 181.97 187.851 180.358 186.488 179.793C184.279 178.887 176.708 175.751 172.276 179.322Z" fill="url(#paint42_radial)"/>
<path style="mix-blend-mode:multiply" opacity="0.3" d="M200.566 211.567C196.769 198.841 201.044 192.926 194.795 185.652C191.637 181.972 187.852 180.36 186.489 179.795C184.813 179.101 180.036 177.128 175.893 177.789C177.577 179.977 179.375 182.508 181.175 185.38C186.34 193.618 188.922 197.736 189.349 202.819C190.247 213.478 182.195 217.136 184.445 226.251C186.008 232.58 190.469 233.159 191.256 237.967C191.653 240.388 191.039 243.402 188.249 247.149C193.739 244.739 195.645 241.04 205.698 237.556C208.09 236.726 209.021 236.577 209.785 235.512C212.833 231.262 204.47 224.661 200.566 211.567Z" fill="url(#paint43_linear)"/>
<path d="M179.039 169.573C179.039 169.573 178.254 175.847 175.938 177.285C173.621 178.723 174.893 180.143 174.48 180.653C174.067 181.163 181.319 184.296 188.636 180.605L191.686 178.461C189.278 178.47 186.187 178.298 184.966 177.601C183.61 176.817 182.447 175.741 181.559 174.451L181.587 170.977L179.039 169.573Z" fill="url(#paint44_linear)"/>
<path d="M178.315 172.311C178.315 172.311 181.099 174.798 184.205 172.842C186.986 171.087 183.504 163.685 180.919 163.311C180.057 163.187 178.619 163.634 177.771 164.457C177.174 165.036 175.826 167.719 177.434 170.054C176.623 169.998 175.995 170.343 175.913 170.756C175.802 171.28 176.588 171.793 176.767 171.909C177.228 172.202 177.77 172.342 178.315 172.311Z" fill="url(#paint45_linear)"/>
<path d="M199.896 145.711C199.896 145.711 199.351 144.797 197.717 142.708C196.082 140.618 194.356 141.256 195.809 143.935C197.262 146.614 199.19 145.882 199.896 145.711Z" fill="url(#paint46_linear)"/>
<path d="M234.598 139.343C234.598 139.343 236.002 135.716 236.891 134.087C237.781 132.457 239.23 138.693 234.598 139.343Z" fill="url(#paint47_linear)"/>
<path d="M237.681 150.712C237.681 150.712 236.254 149.192 237.5 148.924C238.746 148.656 241.231 150.222 241.507 150.712C241.783 151.203 237.681 150.712 237.681 150.712Z" fill="url(#paint48_linear)"/>
<path d="M237.207 152.237L237.558 150.599C237.575 150.522 237.61 150.45 237.66 150.389C237.71 150.328 237.775 150.281 237.848 150.25C237.92 150.22 238 150.208 238.078 150.215C238.157 150.222 238.232 150.248 238.299 150.29L238.361 150.33C238.43 150.374 238.487 150.435 238.526 150.506C238.565 150.578 238.586 150.659 238.585 150.741V152.582L237.207 152.237Z" fill="url(#paint49_linear)"/>
<path d="M243.636 156.267C243.636 156.267 242.208 154.746 243.455 154.478C244.702 154.21 247.186 155.777 247.461 156.267C247.736 156.757 243.636 156.267 243.636 156.267Z" fill="url(#paint50_linear)"/>
<path d="M243.162 157.793L243.513 156.155C243.53 156.078 243.565 156.006 243.615 155.945C243.666 155.884 243.73 155.836 243.803 155.806C243.876 155.776 243.955 155.763 244.034 155.77C244.113 155.778 244.189 155.804 244.255 155.846L244.317 155.886C244.386 155.931 244.442 155.991 244.481 156.063C244.52 156.135 244.54 156.215 244.54 156.297V158.138L243.162 157.793Z" fill="url(#paint51_linear)"/>
<path d="M224.922 159.445C224.922 159.445 228.038 159.281 229.809 159.703C231.58 160.126 233.619 159.787 235.032 157.48C236.444 155.173 236.701 151.77 236.701 151.77L238.847 152.004C238.847 152.004 239.432 155.728 239.255 157.953C239.078 160.178 237.877 165.441 231.209 165.945C224.542 166.449 224.922 159.445 224.922 159.445Z" fill="url(#paint52_linear)"/>
<path d="M226.495 162.346C226.495 162.346 229.128 162.159 231.489 162.823C233.85 163.486 237.807 163.935 239.511 162.418C241.216 160.9 242.815 157.24 242.815 157.24L244.931 157.474C244.931 157.474 245.343 162.94 243.162 166.845C240.982 170.75 234.361 174.777 226.817 170.311C219.274 165.846 226.495 162.346 226.495 162.346Z" fill="url(#paint53_linear)"/>
<path d="M199.02 144.913C198.401 145.45 198.193 146.231 198.112 146.775C199.765 148.836 201.951 150.404 204.434 151.309C206.916 152.214 209.599 152.42 212.19 151.906C212.023 154.212 212.062 158.327 214.188 162.623C216.116 166.52 220.771 172.61 224.769 171.524C226.798 170.972 228.644 168.575 228.81 166.347C228.979 164.078 227.328 163.055 227.948 161.083C228.568 159.11 230.698 158.574 230.445 157.723C230.218 156.961 228.541 157.489 226.312 156.319C224.963 155.6 223.845 154.514 223.088 153.186C222.828 152.719 222.618 152.225 222.462 151.714C223.749 151.657 227.54 151.322 231.035 148.463C235.262 145.006 236.054 140.313 236.212 139.199L235.042 138.064C233.02 140.752 230.502 143.028 227.625 144.77C225.788 145.88 220.781 148.901 214.463 148.554C206.608 148.118 201.523 142.736 199.02 144.913Z" fill="url(#paint54_linear)"/>
<path d="M217.64 144.042L218.768 147.682L220.454 147.916C220.454 147.916 216.216 150.822 213.435 148.457L215.101 147.817L215.055 144.955L217.64 144.042Z" fill="url(#paint55_linear)"/>
<path d="M209.192 142.163C208.703 141.415 208.096 141.637 207.659 140.938C207.11 140.06 207.39 138.626 208.108 137.766C208.826 136.906 209.419 137.25 211.37 136.427C213.465 135.542 213.555 134.831 215.37 134.372C216.18 134.148 217.027 134.08 217.863 134.173C218.767 134.281 220.559 134.495 221.365 135.928C222.246 137.496 221.28 139.331 221.185 139.505C222.528 141.192 222.624 142.102 222.365 142.627C222.365 142.627 222.087 143.184 219.864 144.065C219.864 144.065 219.558 145.098 219.3 145.506C219.008 145.974 218.264 146.442 216.193 146.333C215.939 145.837 215.653 145.358 215.337 144.899C214.597 143.83 214.228 143.295 213.856 143.317C212.92 143.375 213.003 146.694 211.806 146.944C211.037 147.101 209.915 145.951 209.553 144.801C209.19 143.651 209.747 143.013 209.192 142.163Z" fill="url(#paint56_linear)"/>
<path d="M217.449 145.343C217.449 145.343 216.504 148.081 213.531 148.531C210.868 148.934 209.202 143.131 210.6 141.512C211.068 140.973 212.151 140.555 213.118 140.611C213.688 140.645 213.92 140.829 214.854 140.865C215.715 140.898 215.927 140.757 216.218 140.911C216.582 141.102 216.947 141.689 216.809 143.522C217.198 142.905 217.757 142.579 218.227 142.686C218.39 142.734 218.537 142.825 218.651 142.951C219.167 143.546 218.739 144.54 217.449 145.343Z" fill="url(#paint57_linear)"/>
<path d="M219.095 161.866C219.135 161.675 219.458 159.622 219.115 158.014C218.772 156.407 218.317 154.045 219.27 155.77C220.224 157.496 220.92 158.6 222.479 157.095C224.039 155.589 223.766 153.902 224.221 154.02C224.677 154.138 225.947 157.01 224.221 158.844C222.496 160.677 220.492 162.587 220.492 162.587L219.095 161.866Z" fill="url(#paint58_linear)"/>
<path d="M172.996 181.838C172.7 185.403 176.721 188.329 177.504 188.899C185.016 194.364 201.108 190.487 211.143 181.294C217.984 175.025 220.885 167.315 222.177 162.085L218.428 160.819C213.142 169.774 207.519 173.006 203.514 174.346C192.867 177.905 181.285 172.217 175.176 177.931C174.601 178.468 173.162 179.852 172.996 181.838Z" fill="url(#paint59_radial)"/>
<path d="M123.334 314.902C123.334 314.902 115.911 317.483 115.107 318.096C114.304 318.709 122.01 318.618 124.517 318.618C127.024 318.618 126.258 315.417 126.258 315.417C126.258 315.417 126.079 314.491 123.334 314.902Z" fill="url(#paint60_linear)"/>
<path d="M123.077 312.065L123.525 314.77C123.566 315.019 123.695 315.246 123.888 315.408C124.081 315.571 124.325 315.66 124.578 315.658V315.658C124.833 315.659 125.08 315.567 125.273 315.401C125.467 315.234 125.593 315.004 125.631 314.752L125.965 312.483L123.077 312.065Z" fill="url(#paint61_linear)"/>
<path d="M86.7206 311.25C86.7206 311.25 76.8827 316.234 76.9026 316.549C76.9225 316.864 86.5896 316.239 87.8999 315.277C89.2102 314.316 89.2839 310.612 86.7206 311.25Z" fill="url(#paint62_linear)"/>
<path d="M89.498 308.896L87.6999 312.563C87.6191 312.727 87.4923 312.865 87.3349 312.959C87.1775 313.053 86.9962 313.099 86.8131 313.092V313.092C86.6763 313.086 86.5423 313.051 86.4203 312.989C86.2983 312.927 86.1911 312.839 86.1062 312.732C86.0213 312.625 85.9606 312.5 85.9284 312.367C85.8961 312.234 85.893 312.096 85.9192 311.961L86.7195 307.908L89.498 308.896Z" fill="url(#paint63_linear)"/>
<path d="M106.214 238.111C95.7552 260.163 88.7599 283.695 85.4746 307.879C85.4113 308.345 85.536 308.818 85.8211 309.194C86.1063 309.569 86.5287 309.815 86.9955 309.879L88.6638 310.113C88.9534 310.154 89.2487 310.123 89.5234 310.023C89.7982 309.923 90.0438 309.756 90.2385 309.538C93.0264 306.399 96.3572 301.721 98.132 295.446C99.7933 289.573 98.5648 287.699 100.128 282.269C102.264 274.849 105.821 273.963 111.944 264.675C116.452 257.842 123.175 247.649 119.739 242.074C119.162 241.14 116.573 237.537 106.214 238.111Z" fill="url(#paint64_linear)"/>
<path d="M117.39 247.05C119.938 259.386 121.578 271.892 122.298 284.468C122.794 293.473 122.833 302.497 122.415 311.505C122.391 312.023 122.562 312.531 122.896 312.928C123.229 313.325 123.699 313.582 124.213 313.647C124.474 313.68 124.735 313.714 124.999 313.746C125.403 313.795 125.813 313.723 126.176 313.54C126.539 313.356 126.84 313.069 127.04 312.715C129.048 309.128 131.344 303.619 131.653 297.638C131.842 293.948 131.228 292.502 131.198 288.192C131.154 281.897 132.424 278.599 134.162 271.094C137.296 257.545 138.864 250.77 136.374 247.776C135.457 246.676 131.618 242.898 117.39 247.05Z" fill="url(#paint65_linear)"/>
<path style="mix-blend-mode:multiply" opacity="0.3" d="M119.739 242.075C119.318 241.394 117.826 239.298 113.045 238.432C113.783 248.727 111.337 255.328 108.651 259.633C104.41 266.431 99.585 267.494 96.3665 275.651C93.7833 282.202 95.4002 285.289 94.2712 295.025C93.7594 299.396 92.8633 303.715 91.5933 307.929C94.0396 304.877 96.6345 300.732 98.1284 295.449C99.7897 289.576 98.5613 287.702 100.124 282.273C102.261 274.853 105.817 273.966 111.941 264.678C116.448 257.843 123.176 247.65 119.739 242.075Z" fill="url(#paint66_linear)"/>
<path d="M98.3142 179.664C102.824 175.335 110.074 176.113 121.165 177.308C132.172 178.493 140.906 179.434 146.239 185.91C155.403 197.041 148.593 217.318 147.087 221.8C144.305 230.083 141.349 232.295 141.012 240.072C140.622 249.08 144.261 253.776 141.274 257.222C139.15 259.678 136.642 258.068 126.299 259.912C117.391 261.497 117.426 263.014 112.751 262.677C110.718 262.531 106.733 261.005 98.7647 257.954C95.0396 256.528 93.6778 255.911 93.1338 254.503C92.0177 251.615 95.4468 248.267 97.3116 245.421C101.541 238.962 99.6421 232.132 97.8966 219.634C94.6407 196.381 93.0122 184.758 98.3142 179.664Z" fill="url(#paint67_linear)"/>
<path d="M94.9568 151.322C89.0768 154.807 86.111 161.422 87.4903 167.307C89.2183 174.677 97.5376 179.92 106.22 177.843C109.833 189.503 105.518 200.499 98.3648 203.705C89.2008 207.814 77.4875 198.194 73.5554 189.097C68.6336 177.706 73.7988 162.254 87.1464 152.23L94.9568 151.322Z" fill="url(#paint68_linear)"/>
<path style="mix-blend-mode:multiply" opacity="0.3" d="M147.09 221.8C148.595 217.318 155.405 197.041 146.241 185.91C142.436 181.288 136.895 179.485 130.033 178.402C142.624 186.013 145.558 191.083 144.91 194.554C143.647 201.318 129.152 200.065 123.112 211.629C120.102 217.391 120.64 223.562 121.659 235.242C122.673 246.874 124.891 248.649 124.202 255.042C123.997 256.927 123.588 258.784 122.982 260.581C123.933 260.361 125.025 260.135 126.306 259.907C136.645 258.068 139.153 259.673 141.281 257.216C144.268 253.771 140.629 249.078 141.019 240.066C141.351 232.295 144.308 230.083 147.09 221.8Z" fill="url(#paint69_linear)"/>
<path d="M127.462 168.708C127.246 170.471 127.225 172.252 127.401 174.019C127.546 175.454 127.722 175.842 127.964 176.169C128.329 176.66 128.915 177.105 132.377 178.34C134.264 179.011 134.514 179.03 134.537 179.21C134.654 180.087 129.063 182.334 123.716 180.965C120.454 180.13 117.639 178.04 117.922 177.162C118.205 176.283 121.453 177.162 122.618 175.641C123.429 174.58 122.839 172.861 122.079 171.407C123.124 170.011 126.415 170.112 127.462 168.708Z" fill="url(#paint70_linear)"/>
<path d="M110.637 169.229C116.955 169.394 120.894 176.26 122.081 180.536C124.019 187.514 120.821 195.542 114.084 201.097L111.182 200.153C112.165 198.607 114.718 194.127 114.043 188.301C112.849 177.994 102.703 173.401 102.19 173.179C103.162 172.167 106.34 169.116 110.637 169.229Z" fill="url(#paint71_linear)"/>
<path d="M96.5863 175.099C96.0821 178.985 100.375 182.374 101.996 183.655C105.935 186.767 107.846 185.583 109.003 187.794C110.923 191.465 106.347 196.067 108.944 201.365C109.105 201.694 109.287 202.013 109.488 202.319L111.532 203.138C113.871 200.119 115.501 196.614 116.304 192.881C116.791 190.595 117.861 185.201 115.347 179.16C112.526 172.385 107.027 169.191 105.265 168.261C100.562 169.112 97.0005 171.906 96.5863 175.099Z" fill="url(#paint72_linear)"/>
<path d="M132.648 126.445C132.648 126.445 133.739 124.499 133.33 122.504C132.922 120.51 131.967 117.444 132.035 116.559C132.103 115.673 133.673 118.057 134.556 119.625C135.44 121.193 136.328 122.894 135.646 123.644C134.963 124.394 133.96 127.595 133.96 127.595L132.648 126.445Z" fill="url(#paint73_linear)"/>
<path d="M60.5122 136.995C60.5122 136.995 58.7409 134.538 58.6731 132.567C58.6052 130.596 58.4005 125.619 57.7874 125.346C57.1744 125.074 56.4935 129.842 55.8805 130.865C55.2674 131.887 56.3484 134.05 57.0328 135.012C57.7172 135.974 58.6707 138.152 58.6707 138.152L60.5122 136.995Z" fill="url(#paint74_linear)"/>
<path d="M101.257 146.29C104.913 144.919 109.462 143.213 109.768 140.323C109.989 138.23 107.741 137.74 105.439 133.405C102.983 128.782 104.362 127.124 102.109 124.583C99.1463 121.244 93.4149 120.331 91.791 122.169C90.7217 123.378 92.0356 125.1 91.0645 126.05C89.2897 127.788 84.3035 122.627 77.9228 123.268C73.9848 123.664 69.6163 126.259 69.4701 128.918C69.2525 133.013 79.1138 135.88 78.42 138.628C77.9906 140.334 74.0293 139.927 73.7146 141.444C73.2981 143.452 79.5888 147.268 86.1005 148.38C92.6696 149.51 97.7834 147.592 101.257 146.29Z" fill="url(#paint75_linear)"/>
<path d="M60.6253 136.246C63.2073 139.035 67.6132 143.011 74.0677 145.51C85.9588 150.114 96.8577 146.63 103.901 144.375C118.223 139.796 127.555 131.02 132.34 125.684L135.639 127.164C134.342 131.973 131.718 138.467 125.831 142.967C119.459 147.836 112.642 147.79 112.026 151.686C111.608 154.326 114.56 155.473 118.383 163.129C120.489 167.341 121.542 169.447 120.745 170.941C119.022 174.189 112.129 170.431 103.852 174.21C98.3634 176.716 96.715 180.507 94.3167 179.599C92.5442 178.928 92.0587 175.995 91.1368 170.214C89.9271 162.637 90.8525 160.958 89.1842 159.133C86.6537 156.368 83.3861 158.98 76.8217 157.027C70.5603 155.162 66.5533 150.72 63.5127 147.317C60.9096 144.397 58.7265 141.129 57.0266 137.606L60.6253 136.246Z" fill="url(#paint76_linear)"/>
<path style="mix-blend-mode:multiply" opacity="0.3" d="M98.0452 173.166C96.1067 169.252 100.229 165.561 98.2488 160.223C97.0648 157.028 94.1541 154.472 91.2176 153.37C85.1106 151.077 81.2147 155.952 75.5664 153.207C73.4465 152.177 74.5134 151.741 70.4573 148.575C65.4384 144.654 62.8107 144.545 59.8883 141.128C58.9336 140.004 58.1355 138.757 57.5156 137.419L57.0325 137.601C58.7324 141.124 60.9155 144.392 63.5185 147.312C66.5603 150.719 70.5661 155.161 76.8275 157.022C83.392 158.977 86.6549 156.366 89.1901 159.128C90.8584 160.953 89.933 162.632 91.1427 170.209C92.0646 175.99 92.5466 178.923 94.3225 179.595C96.2108 180.311 97.6393 178.104 100.85 175.909C99.3087 175.063 98.4956 174.075 98.0452 173.166Z" fill="url(#paint77_linear)"/>
<path d="M95.8692 141.715L95.496 144.553C95.4639 144.798 95.3637 145.03 95.2067 145.221C95.0498 145.412 94.8424 145.556 94.6081 145.635L88.4976 147.711C88.4976 147.711 94.8491 149.392 99.3076 148.03C103.766 146.668 104.586 144.154 104.586 144.154L100.771 144.479C100.438 144.508 100.106 144.409 99.8419 144.203C99.5782 143.997 99.4023 143.699 99.3497 143.368L98.9836 141.061C98.9612 140.922 98.9067 140.789 98.8244 140.675C98.7421 140.56 98.6343 140.466 98.5094 140.401C98.3846 140.335 98.2461 140.299 98.105 140.296C97.964 140.293 97.8242 140.323 97.6966 140.384L96.3828 141.014C96.2455 141.079 96.1265 141.177 96.0368 141.299C95.947 141.421 95.8894 141.564 95.8692 141.715V141.715Z" fill="url(#paint78_linear)"/>
<path d="M95.2049 141.609C95.2049 141.609 96.087 145.104 99.6283 145.221C102.799 145.325 104.024 137.519 102.158 135.822C101.535 135.256 100.144 134.836 99.02 135.034C98.2303 135.174 95.6997 136.59 95.722 139.327C95.1054 138.844 94.4163 138.781 94.1227 139.064C93.7507 139.424 94.1016 140.259 94.1812 140.449C94.3932 140.933 94.7511 141.339 95.2049 141.609V141.609Z" fill="url(#paint79_linear)"/>
<path d="M121.644 168.043C121.323 166.734 121.978 164.954 123.25 164.182C124.346 163.52 125.527 163.848 126.235 164.045C128.287 164.616 130.421 166.502 130.532 168.754C130.597 170.091 128.566 171.971 128.227 172.32C127.842 172.714 127.423 172.729 126.953 172.952C126.3 173.262 125.275 173.758 123.589 174.598C123.67 174.074 123.707 173.544 123.699 173.014C123.691 172.328 123.598 171.646 123.422 170.983C122.921 169.253 121.947 169.284 121.644 168.043Z" fill="#444B8C"/>
<path d="M125.691 174.178C125.691 174.178 123.52 175.866 121.03 174.62C118.807 173.506 120.616 167.958 122.532 167.418C123.172 167.238 124.212 167.485 124.914 168.05C125.329 168.383 125.408 168.655 126.097 169.186C126.732 169.677 126.967 169.677 127.106 169.957C127.282 170.308 127.247 170.975 126.17 172.371C126.794 172.087 127.392 172.127 127.691 172.467C127.791 172.595 127.854 172.748 127.874 172.908C127.945 173.663 127.095 174.229 125.691 174.178Z" fill="url(#paint80_linear)"/>
<path d="M127.335 169.675C127.19 169.716 127.357 170.292 127.138 170.918C126.714 172.133 124.997 173.089 123.778 172.722C123.057 172.506 123.041 171.987 121.948 171.384C121.417 171.092 120.841 170.892 120.243 170.792C119.366 171.95 119.19 173.395 119.775 174.346C120.41 175.372 121.708 175.454 122.251 175.488C122.615 175.511 123.779 175.586 124.708 174.82C125.675 174.021 125.374 173.17 126.291 172.74C126.759 172.522 127.24 172.546 127.929 172.038C128.076 171.928 128.215 171.807 128.344 171.675C128.005 170.767 127.546 169.617 127.335 169.675Z" fill="#444B8C"/>
<path d="M120.881 171.623C120.881 171.623 121.267 172.101 122.142 172.407C122.184 172.422 122.225 172.453 122.222 172.479C122.208 172.573 121.507 172.727 121.061 172.362C120.745 172.106 120.609 171.632 120.693 171.561C120.729 171.536 120.807 171.575 120.881 171.623Z" fill="url(#paint81_linear)"/>
<path d="M96.0975 181.396L94.9603 176.492C94.9603 176.492 92.5304 172.722 90.9276 169.673C89.3248 166.624 90.1414 174.395 91.2154 176.492C92.2894 178.588 94.2081 181.891 94.2081 181.891L96.0975 181.396Z" fill="url(#paint82_linear)"/>
<path d="M94.2081 181.89L96.6825 180.385C101.774 191.414 106.915 194.355 110.714 194.962C114.548 195.575 120.225 193.29 131.422 188.696C138.712 185.704 140.558 184.545 143.139 185.426C148.261 187.174 151.665 195.378 149.977 201.79C147.506 211.176 134.865 213.876 131.265 214.645C128.847 215.162 112.175 218.722 101.183 206.683C92.066 196.699 93.9179 183.714 94.2081 181.89Z" fill="url(#paint83_linear)"/>
<defs>
<linearGradient id="paint0_linear" x1="95.7253" y1="54.6235" x2="177.133" y2="54.6235" gradientUnits="userSpaceOnUse">
<stop stop-color="#444B8C"/>
<stop offset="1" stop-color="#26264F"/>
</linearGradient>
<linearGradient id="paint1_linear" x1="178.019" y1="95.738" x2="129.149" y2="115.752" gradientUnits="userSpaceOnUse">
<stop stop-color="#311944"/>
<stop offset="1" stop-color="#A03976"/>
</linearGradient>
<radialGradient id="paint2_radial" cx="0" cy="0" r="1" gradientUnits="userSpaceOnUse" gradientTransform="translate(149.932 21.9926) rotate(-26.8613) scale(22.794 40.2117)">
<stop stop-color="#FFB934"/>
<stop offset="1" stop-color="#FF8625"/>
</radialGradient>
<radialGradient id="paint3_radial" cx="0" cy="0" r="1" gradientUnits="userSpaceOnUse" gradientTransform="translate(101.049 21.9926) rotate(-13.6002) scale(43.7986 43.8112)">
<stop stop-color="#FFB934"/>
<stop offset="1" stop-color="#FF8625"/>
</radialGradient>
<radialGradient id="paint4_radial" cx="0" cy="0" r="1" gradientUnits="userSpaceOnUse" gradientTransform="translate(115.237 21.9926) rotate(-19.1153) scale(31.4504 42.5898)">
<stop stop-color="#FFB934"/>
<stop offset="1" stop-color="#FF8625"/>
</radialGradient>
<radialGradient id="paint5_radial" cx="0" cy="0" r="1" gradientUnits="userSpaceOnUse" gradientTransform="translate(202.95 21.9926) rotate(-13.6002) scale(43.7986 43.8112)">
<stop stop-color="#FFB934"/>
<stop offset="1" stop-color="#FF8625"/>
</radialGradient>
<radialGradient id="paint6_radial" cx="0" cy="0" r="1" gradientUnits="userSpaceOnUse" gradientTransform="translate(186.369 21.9926) rotate(-19.1153) scale(31.4504 42.5898)">
<stop stop-color="#FFB934"/>
<stop offset="1" stop-color="#FF8625"/>
</radialGradient>
<linearGradient id="paint7_linear" x1="77641.2" y1="88659.5" x2="58138.8" y2="110310" gradientUnits="userSpaceOnUse">
<stop stop-color="#311944"/>
<stop offset="1" stop-color="#A03976"/>
</linearGradient>
<linearGradient id="paint8_linear" x1="148028" y1="55010" x2="121299" y2="75385.1" gradientUnits="userSpaceOnUse">
<stop stop-color="#FF9085"/>
<stop offset="1" stop-color="#FB6FBB"/>
</linearGradient>
<linearGradient id="paint9_linear" x1="86958.5" y1="142643" x2="35167" y2="210198" gradientUnits="userSpaceOnUse">
<stop stop-color="#FF9085"/>
<stop offset="1" stop-color="#FB6FBB"/>
</linearGradient>
<linearGradient id="paint10_linear" x1="115263" y1="142092" x2="32322.4" y2="11626.9" gradientUnits="userSpaceOnUse">
<stop stop-color="#FF9085"/>
<stop offset="1" stop-color="#FB6FBB"/>
</linearGradient>
<linearGradient id="paint11_linear" x1="14.396" y1="59.5381" x2="86.9451" y2="59.5381" gradientUnits="userSpaceOnUse">
<stop stop-color="#311944"/>
<stop offset="1" stop-color="#893976"/>
</linearGradient>
<linearGradient id="paint12_linear" x1="55614.9" y1="91924" x2="94077.7" y2="91924" gradientUnits="userSpaceOnUse">
<stop stop-color="#FF9085"/>
<stop offset="1" stop-color="#FB6FBB"/>
</linearGradient>
<linearGradient id="paint13_linear" x1="219121" y1="253114" x2="288654" y2="253114" gradientUnits="userSpaceOnUse">
<stop stop-color="#6165D7"/>
<stop offset="1" stop-color="#AA80F9"/>
</linearGradient>
<radialGradient id="paint14_radial" cx="0" cy="0" r="1" gradientUnits="userSpaceOnUse" gradientTransform="translate(235.964 267.619) scale(74.6589 57.8772)">
<stop stop-color="#2994FE"/>
<stop offset="0.99" stop-color="#713592"/>
</radialGradient>
<linearGradient id="paint15_linear" x1="126447" y1="246754" x2="149570" y2="246754" gradientUnits="userSpaceOnUse">
<stop stop-color="#6165D7"/>
<stop offset="1" stop-color="#AA80F9"/>
</linearGradient>
<linearGradient id="paint16_linear" x1="96201.2" y1="48400.8" x2="95050.3" y2="55193.7" gradientUnits="userSpaceOnUse">
<stop stop-color="#6165D7"/>
<stop offset="1" stop-color="#AA80F9"/>
</linearGradient>
<linearGradient id="paint17_linear" x1="96201.2" y1="49063.4" x2="95050.6" y2="55855.5" gradientUnits="userSpaceOnUse">
<stop stop-color="#6165D7"/>
<stop offset="1" stop-color="#AA80F9"/>
</linearGradient>
<linearGradient id="paint18_linear" x1="112700" y1="58167" x2="128646" y2="58167" gradientUnits="userSpaceOnUse">
<stop stop-color="#6165D7"/>
<stop offset="1" stop-color="#AA80F9"/>
</linearGradient>
<linearGradient id="paint19_linear" x1="73846" y1="12821.6" x2="80376.9" y2="12821.6" gradientUnits="userSpaceOnUse">
<stop stop-color="#444B8C"/>
<stop offset="1" stop-color="#26264F"/>
</linearGradient>
<linearGradient id="paint20_linear" x1="100556" y1="47524.3" x2="113246" y2="47524.3" gradientUnits="userSpaceOnUse">
<stop stop-color="#6165D7"/>
<stop offset="1" stop-color="#AA80F9"/>
</linearGradient>
<linearGradient id="paint21_linear" x1="244.583" y1="247.499" x2="258.326" y2="299.005" gradientUnits="userSpaceOnUse">
<stop stop-color="#EBEFF2"/>
<stop offset="1" stop-color="white"/>
</linearGradient>
<linearGradient id="paint22_linear" x1="267.229" y1="180.503" x2="245.031" y2="187.627" gradientUnits="userSpaceOnUse">
<stop stop-color="#FCB148"/>
<stop offset="0.05" stop-color="#FDBA46"/>
<stop offset="0.14" stop-color="#FFC244"/>
<stop offset="0.32" stop-color="#FFC444"/>
<stop offset="0.48" stop-color="#FDB946"/>
<stop offset="0.78" stop-color="#F99C4D"/>
<stop offset="0.87" stop-color="#F8924F"/>
<stop offset="1" stop-color="#F8924F"/>
</linearGradient>
<linearGradient id="paint23_linear" x1="285.186" y1="158.408" x2="265.369" y2="202.127" gradientUnits="userSpaceOnUse">
<stop stop-color="#FFDB44"/>
<stop offset="1" stop-color="#FEEF06"/>
</linearGradient>
<linearGradient id="paint24_linear" x1="112758" y1="82949.9" x2="111529" y2="76354.2" gradientUnits="userSpaceOnUse">
<stop stop-color="#FCB148"/>
<stop offset="0.05" stop-color="#FDBA46"/>
<stop offset="0.14" stop-color="#FFC244"/>
<stop offset="0.32" stop-color="#FFC444"/>
<stop offset="0.48" stop-color="#FDB946"/>
<stop offset="0.78" stop-color="#F99C4D"/>
<stop offset="0.87" stop-color="#F8924F"/>
<stop offset="1" stop-color="#F8924F"/>
</linearGradient>
<linearGradient id="paint25_linear" x1="106487" y1="69798.6" x2="111353" y2="79944.3" gradientUnits="userSpaceOnUse">
<stop stop-color="#FCB148"/>
<stop offset="0.05" stop-color="#FDBA46"/>
<stop offset="0.14" stop-color="#FFC244"/>
<stop offset="0.32" stop-color="#FFC444"/>
<stop offset="0.48" stop-color="#FDB946"/>
<stop offset="0.78" stop-color="#F99C4D"/>
<stop offset="0.87" stop-color="#F8924F"/>
<stop offset="1" stop-color="#F8924F"/>
</linearGradient>
<linearGradient id="paint26_linear" x1="52595.1" y1="55165.5" x2="55554.7" y2="61757.9" gradientUnits="userSpaceOnUse">
<stop stop-color="#FFDB44"/>
<stop offset="1" stop-color="#FEEF06"/>
</linearGradient>
<linearGradient id="paint27_linear" x1="62791.7" y1="70276.9" x2="68854.7" y2="77836.6" gradientUnits="userSpaceOnUse">
<stop stop-color="#FCB148"/>
<stop offset="0.05" stop-color="#FDBA46"/>
<stop offset="0.14" stop-color="#FFC244"/>
<stop offset="0.32" stop-color="#FFC444"/>
<stop offset="0.48" stop-color="#FDB946"/>
<stop offset="0.78" stop-color="#F99C4D"/>
<stop offset="0.87" stop-color="#F8924F"/>
<stop offset="1" stop-color="#F8924F"/>
</linearGradient>
<linearGradient id="paint28_linear" x1="124470" y1="70339.5" x2="115008" y2="73322.5" gradientUnits="userSpaceOnUse">
<stop stop-color="#FCB148"/>
<stop offset="0.05" stop-color="#FDBA46"/>
<stop offset="0.14" stop-color="#FFC244"/>
<stop offset="0.32" stop-color="#FFC444"/>
<stop offset="0.48" stop-color="#FDB946"/>
<stop offset="0.78" stop-color="#F99C4D"/>
<stop offset="0.87" stop-color="#F8924F"/>
<stop offset="1" stop-color="#F8924F"/>
</linearGradient>
<linearGradient id="paint29_linear" x1="132114" y1="60779" x2="123441" y2="79574.4" gradientUnits="userSpaceOnUse">
<stop stop-color="#FFDB44"/>
<stop offset="1" stop-color="#FEEF06"/>
</linearGradient>
<linearGradient id="paint30_linear" x1="124604" y1="77072.1" x2="122999" y2="68458.6" gradientUnits="userSpaceOnUse">
<stop stop-color="#FCB148"/>
<stop offset="0.05" stop-color="#FDBA46"/>
<stop offset="0.14" stop-color="#FFC244"/>
<stop offset="0.32" stop-color="#FFC444"/>
<stop offset="0.48" stop-color="#FDB946"/>
<stop offset="0.78" stop-color="#F99C4D"/>
<stop offset="0.87" stop-color="#F8924F"/>
<stop offset="1" stop-color="#F8924F"/>
</linearGradient>
<linearGradient id="paint31_linear" x1="117161" y1="60957.1" x2="123516" y2="74205.6" gradientUnits="userSpaceOnUse">
<stop stop-color="#FCB148"/>
<stop offset="0.05" stop-color="#FDBA46"/>
<stop offset="0.14" stop-color="#FFC244"/>
<stop offset="0.32" stop-color="#FFC444"/>
<stop offset="0.48" stop-color="#FDB946"/>
<stop offset="0.78" stop-color="#F99C4D"/>
<stop offset="0.87" stop-color="#F8924F"/>
<stop offset="1" stop-color="#F8924F"/>
</linearGradient>
<linearGradient id="paint32_linear" x1="57804" y1="47387.8" x2="61669.3" y2="55993.6" gradientUnits="userSpaceOnUse">
<stop stop-color="#FFDB44"/>
<stop offset="1" stop-color="#FEEF06"/>
</linearGradient>
<linearGradient id="paint33_linear" x1="68911" y1="61662" x2="76828.4" y2="71534.6" gradientUnits="userSpaceOnUse">
<stop stop-color="#FCB148"/>
<stop offset="0.05" stop-color="#FDBA46"/>
<stop offset="0.14" stop-color="#FFC244"/>
<stop offset="0.32" stop-color="#FFC444"/>
<stop offset="0.48" stop-color="#FDB946"/>
<stop offset="0.78" stop-color="#F99C4D"/>
<stop offset="0.87" stop-color="#F8924F"/>
<stop offset="1" stop-color="#F8924F"/>
</linearGradient>
<linearGradient id="paint34_linear" x1="91222.8" y1="133143" x2="112599" y2="133143" gradientUnits="userSpaceOnUse">
<stop stop-color="#444B8C"/>
<stop offset="1" stop-color="#26264F"/>
</linearGradient>
<linearGradient id="paint35_linear" x1="28929.9" y1="17945.3" x2="30254.9" y2="17945.3" gradientUnits="userSpaceOnUse">
<stop stop-color="#444B8C"/>
<stop offset="1" stop-color="#26264F"/>
</linearGradient>
<linearGradient id="paint36_linear" x1="7306.3" y1="19537.7" x2="7106.5" y2="21008.1" gradientUnits="userSpaceOnUse">
<stop stop-color="#685C49"/>
<stop offset="1" stop-color="#736765"/>
</linearGradient>
<linearGradient id="paint37_linear" x1="16140.5" y1="35769.3" x2="16733.5" y2="35769.3" gradientUnits="userSpaceOnUse">
<stop stop-color="#444B8C"/>
<stop offset="1" stop-color="#26264F"/>
</linearGradient>
<linearGradient id="paint38_linear" x1="8575.47" y1="17128.1" x2="8445.26" y2="18425.4" gradientUnits="userSpaceOnUse">
<stop stop-color="#685C49"/>
<stop offset="1" stop-color="#736765"/>
</linearGradient>
<linearGradient id="paint39_linear" x1="59336.8" y1="284736" x2="42466.9" y2="240132" gradientUnits="userSpaceOnUse">
<stop stop-color="#444B8C"/>
<stop offset="1" stop-color="#26264F"/>
</linearGradient>
<linearGradient id="paint40_linear" x1="51293" y1="284802" x2="32606.2" y2="241971" gradientUnits="userSpaceOnUse">
<stop stop-color="#444B8C"/>
<stop offset="1" stop-color="#26264F"/>
</linearGradient>
<linearGradient id="paint41_linear" x1="101875" y1="269462" x2="93167.8" y2="223189" gradientUnits="userSpaceOnUse">
<stop stop-color="#444B8C"/>
<stop offset="1" stop-color="#26264F"/>
</linearGradient>
<radialGradient id="paint42_radial" cx="0" cy="0" r="1" gradientUnits="userSpaceOnUse" gradientTransform="translate(183.999 175.486) rotate(-23.3966) scale(26.0989 41.6286)">
<stop stop-color="#FFB934"/>
<stop offset="1" stop-color="#FF8625"/>
</radialGradient>
<linearGradient id="paint43_linear" x1="87561.7" y1="136016" x2="52897.2" y2="163294" gradientUnits="userSpaceOnUse">
<stop stop-color="#FFC444"/>
<stop offset="1" stop-color="#F36F56"/>
</linearGradient>
<linearGradient id="paint44_linear" x1="25301.1" y1="38091.8" x2="25078.3" y2="41028.1" gradientUnits="userSpaceOnUse">
<stop stop-color="#685C49"/>
<stop offset="1" stop-color="#736765"/>
</linearGradient>
<linearGradient id="paint45_linear" x1="13784.3" y1="30666.4" x2="13520" y2="33012.1" gradientUnits="userSpaceOnUse">
<stop stop-color="#685C49"/>
<stop offset="1" stop-color="#736765"/>
</linearGradient>
<linearGradient id="paint46_linear" x1="11300.9" y1="8237.94" x2="11240.7" y2="7904.28" gradientUnits="userSpaceOnUse">
<stop stop-color="#311944"/>
<stop offset="1" stop-color="#A03976"/>
</linearGradient>
<linearGradient id="paint47_linear" x1="9041.5" y1="9839.86" x2="8917.47" y2="9453.3" gradientUnits="userSpaceOnUse">
<stop stop-color="#311944"/>
<stop offset="1" stop-color="#A03976"/>
</linearGradient>
<linearGradient id="paint48_linear" x1="236.99" y1="149.911" x2="241.52" y2="149.911" gradientUnits="userSpaceOnUse">
<stop stop-color="#311944"/>
<stop offset="1" stop-color="#6B3976"/>
</linearGradient>
<linearGradient id="paint49_linear" x1="2247.84" y1="7165.7" x2="2154.86" y2="7695.72" gradientUnits="userSpaceOnUse">
<stop stop-color="#685C49"/>
<stop offset="1" stop-color="#736765"/>
</linearGradient>
<linearGradient id="paint50_linear" x1="12778.3" y1="3859.85" x2="12953.8" y2="3859.85" gradientUnits="userSpaceOnUse">
<stop stop-color="#311944"/>
<stop offset="1" stop-color="#6B3976"/>
</linearGradient>
<linearGradient id="paint51_linear" x1="2253.75" y1="7173.22" x2="2160.72" y2="7703.39" gradientUnits="userSpaceOnUse">
<stop stop-color="#685C49"/>
<stop offset="1" stop-color="#736765"/>
</linearGradient>
<linearGradient id="paint52_linear" x1="38805.9" y1="25008.5" x2="38631.5" y2="26640.4" gradientUnits="userSpaceOnUse">
<stop stop-color="#444B8C"/>
<stop offset="1" stop-color="#26264F"/>
</linearGradient>
<linearGradient id="paint53_linear" x1="58370.6" y1="28219" x2="58141.5" y2="31109" gradientUnits="userSpaceOnUse">
<stop stop-color="#444B8C"/>
<stop offset="1" stop-color="#26264F"/>
</linearGradient>
<linearGradient id="paint54_linear" x1="101852" y1="70570" x2="98895.9" y2="59926.4" gradientUnits="userSpaceOnUse">
<stop stop-color="#FF9085"/>
<stop offset="1" stop-color="#FB6FBB"/>
</linearGradient>
<linearGradient id="paint55_linear" x1="10454.3" y1="15965.1" x2="10359.2" y2="17189.8" gradientUnits="userSpaceOnUse">
<stop stop-color="#685C49"/>
<stop offset="1" stop-color="#736765"/>
</linearGradient>
<linearGradient id="paint56_linear" x1="-16888.6" y1="415.437" x2="-18097" y2="-1628" gradientUnits="userSpaceOnUse">
<stop stop-color="#311944"/>
<stop offset="1" stop-color="#6B3976"/>
</linearGradient>
<linearGradient id="paint57_linear" x1="13006.1" y1="23668.6" x2="12838.1" y2="25485.4" gradientUnits="userSpaceOnUse">
<stop stop-color="#685C49"/>
<stop offset="1" stop-color="#736765"/>
</linearGradient>
<linearGradient id="paint58_linear" x1="16842.7" y1="17095.5" x2="16682.9" y2="15344.9" gradientUnits="userSpaceOnUse">
<stop stop-color="#311944"/>
<stop offset="1" stop-color="#A03976"/>
</linearGradient>
<radialGradient id="paint59_radial" cx="0" cy="0" r="1" gradientUnits="userSpaceOnUse" gradientTransform="translate(199.493 159.984) rotate(-10.9897) scale(20.9367 17.1477)">
<stop stop-color="#FFB934"/>
<stop offset="1" stop-color="#FF8625"/>
</radialGradient>
<linearGradient id="paint60_linear" x1="19064" y1="12546.7" x2="20159" y2="12546.7" gradientUnits="userSpaceOnUse">
<stop stop-color="#311944"/>
<stop offset="1" stop-color="#6B3976"/>
</linearGradient>
<linearGradient id="paint61_linear" x1="4337.18" y1="10951.3" x2="4233.68" y2="11766.7" gradientUnits="userSpaceOnUse">
<stop stop-color="#685C49"/>
<stop offset="1" stop-color="#736765"/>
</linearGradient>
<linearGradient id="paint62_linear" x1="16104.9" y1="17618.1" x2="17312.8" y2="17618.1" gradientUnits="userSpaceOnUse">
<stop stop-color="#311944"/>
<stop offset="1" stop-color="#6B3976"/>
</linearGradient>
<linearGradient id="paint63_linear" x1="5332.76" y1="15660.7" x2="5160.6" y2="16831" gradientUnits="userSpaceOnUse">
<stop stop-color="#685C49"/>
<stop offset="1" stop-color="#736765"/>
</linearGradient>
<linearGradient id="paint64_linear" x1="57554.7" y1="187351" x2="50301.6" y2="201672" gradientUnits="userSpaceOnUse">
<stop stop-color="#311944"/>
<stop offset="1" stop-color="#6B3976"/>
</linearGradient>
<linearGradient id="paint65_linear" x1="36540.5" y1="181247" x2="28104.2" y2="191288" gradientUnits="userSpaceOnUse">
<stop stop-color="#311944"/>
<stop offset="1" stop-color="#6B3976"/>
</linearGradient>
<linearGradient id="paint66_linear" x1="48033" y1="180928" x2="40431.4" y2="193781" gradientUnits="userSpaceOnUse">
<stop stop-color="#311944"/>
<stop offset="1" stop-color="#6B3976"/>
</linearGradient>
<linearGradient id="paint67_linear" x1="103.106" y1="198.75" x2="132.261" y2="236.623" gradientUnits="userSpaceOnUse">
<stop stop-color="#AA80F9"/>
<stop offset="1" stop-color="#6165D7"/>
</linearGradient>
<linearGradient id="paint68_linear" x1="56851.6" y1="116362" x2="70477.4" y2="128237" gradientUnits="userSpaceOnUse">
<stop stop-color="#AA80F9"/>
<stop offset="1" stop-color="#6165D7"/>
</linearGradient>
<linearGradient id="paint69_linear" x1="49452.3" y1="175753" x2="65884.1" y2="183567" gradientUnits="userSpaceOnUse">
<stop stop-color="#AA80F9"/>
<stop offset="1" stop-color="#6165D7"/>
</linearGradient>
<linearGradient id="paint70_linear" x1="24389.3" y1="37743.1" x2="24163" y2="40651.6" gradientUnits="userSpaceOnUse">
<stop stop-color="#685C49"/>
<stop offset="1" stop-color="#736765"/>
</linearGradient>
<linearGradient id="paint71_linear" x1="35788" y1="63877.9" x2="34117.3" y2="64611.3" gradientUnits="userSpaceOnUse">
<stop stop-color="#444B8C"/>
<stop offset="1" stop-color="#26264F"/>
</linearGradient>
<linearGradient id="paint72_linear" x1="33387.7" y1="68778.4" x2="30565.5" y2="73903.5" gradientUnits="userSpaceOnUse">
<stop stop-color="#444B8C"/>
<stop offset="1" stop-color="#26264F"/>
</linearGradient>
<linearGradient id="paint73_linear" x1="7311.73" y1="19759.4" x2="6420.55" y2="17264.3" gradientUnits="userSpaceOnUse">
<stop stop-color="#311944"/>
<stop offset="1" stop-color="#A03976"/>
</linearGradient>
<linearGradient id="paint74_linear" x1="5883.08" y1="23573.6" x2="4935.16" y2="20671.4" gradientUnits="userSpaceOnUse">
<stop stop-color="#311944"/>
<stop offset="1" stop-color="#A03976"/>
</linearGradient>
<linearGradient id="paint75_linear" x1="57894" y1="45388.9" x2="59317.6" y2="53887.8" gradientUnits="userSpaceOnUse">
<stop stop-color="#444B8C"/>
<stop offset="1" stop-color="#26264F"/>
</linearGradient>
<linearGradient id="paint76_linear" x1="92674" y1="97164.9" x2="145498" y2="97164.9" gradientUnits="userSpaceOnUse">
<stop stop-color="#FF9085"/>
<stop offset="1" stop-color="#FB6FBB"/>
</linearGradient>
<linearGradient id="paint77_linear" x1="51679.7" y1="78222.6" x2="68090.5" y2="78222.6" gradientUnits="userSpaceOnUse">
<stop stop-color="#FF9085"/>
<stop offset="1" stop-color="#FB6FBB"/>
</linearGradient>
<linearGradient id="paint78_linear" x1="24345.4" y1="15523.3" x2="24414.8" y2="13476" gradientUnits="userSpaceOnUse">
<stop stop-color="#311944"/>
<stop offset="1" stop-color="#A03976"/>
</linearGradient>
<linearGradient id="paint79_linear" x1="-13939.6" y1="8931.81" x2="-12553.7" y2="10058.1" gradientUnits="userSpaceOnUse">
<stop stop-color="#311944"/>
<stop offset="1" stop-color="#A03976"/>
</linearGradient>
<linearGradient id="paint80_linear" x1="11605.7" y1="23023.9" x2="11429.3" y2="24786.3" gradientUnits="userSpaceOnUse">
<stop stop-color="#685C49"/>
<stop offset="1" stop-color="#736765"/>
</linearGradient>
<linearGradient id="paint81_linear" x1="2387.31" y1="3250.54" x2="2371.01" y2="3489.2" gradientUnits="userSpaceOnUse">
<stop stop-color="#685C49"/>
<stop offset="1" stop-color="#736765"/>
</linearGradient>
<linearGradient id="paint82_linear" x1="8946.17" y1="38420.7" x2="8328.43" y2="41265.4" gradientUnits="userSpaceOnUse">
<stop stop-color="#685C49"/>
<stop offset="1" stop-color="#736765"/>
</linearGradient>
<linearGradient id="paint83_linear" x1="101152" y1="70177" x2="98561" y2="81175.5" gradientUnits="userSpaceOnUse">
<stop stop-color="#AA80F9"/>
<stop offset="1" stop-color="#6165D7"/>
</linearGradient>
</defs>
</svg>
