<svg width="316" height="295" viewBox="0 0 316 295" fill="none" xmlns="http://www.w3.org/2000/svg">
<path d="M180.812 41.9097L7.58173 31.8886C3.59212 31.6944 0 36.0474 0 39.7031V262.77C0 267.84 5.17865 268.861 9.16939 268.449L180.812 250.919C183.948 250.599 186.479 247.729 186.479 244.51V48.0174C186.479 44.7943 183.948 42.0687 180.812 41.9097Z" fill="#97A6B7"/>
<path d="M183.658 40.138L10.0879 31.5989C6.09827 31.4036 2.84912 34.2302 2.84912 37.9144V262.729C2.84912 266.413 6.09827 269.066 10.0879 268.655L183.658 250.784C186.792 250.462 189.324 247.57 189.324 244.325V46.2933C189.327 43.0476 186.796 40.2924 183.658 40.138Z" fill="#D8DEE8"/>
<path d="M10.0879 265.601C7.93576 265.818 6.18115 264.38 6.18115 262.395V38.0642C6.18115 36.079 7.93576 34.5436 10.0879 34.6481L183.658 42.8476C185.352 42.9271 186.724 44.4205 186.724 46.1763V244.578C186.724 246.333 185.348 247.901 183.658 248.072L10.0879 265.601Z" fill="url(#paint0_linear)"/>
<path d="M172.474 242.755L24.016 257.059V50.0942L172.474 55.6851V242.755Z" fill="white"/>
<g style="mix-blend-mode:multiply" opacity="0.3">
<path d="M113.095 56.6983L53.7635 57.441L55.1002 44.0605C55.2002 42.3218 56.4574 40.8943 58.112 40.6399L68.1604 39.0954C68.7509 39 69.3085 38.7594 69.783 38.3953C70.2576 38.0312 70.6343 37.5549 70.8792 37.0092L71.9683 34.6436L98.2511 36.2664L113.095 56.6983Z" fill="#97A6B7"/>
</g>
<path d="M144.779 48.0176C144.657 47.2954 144.288 46.6378 143.737 46.1559C143.185 45.674 142.484 45.3973 141.752 45.3726L132.271 44.9478C127.968 44.7548 124.813 41.2592 124.971 36.8312L125.338 26.5704C125.405 24.6727 124.05 23.1532 122.188 23.0419L119.072 22.8557C116.698 22.7137 115.116 20.6195 115.45 18.1994C116.031 13.9679 113.132 10.3167 108.931 10.0305C104.696 9.74209 100.744 12.9833 100.114 17.2625C100.022 17.9103 99.7974 18.5323 99.4549 19.0898C98.4759 20.6593 96.7611 21.5235 95.0826 21.4236L91.8697 21.2317C89.9221 21.1181 88.0721 22.4809 87.5792 24.4047L84.9081 34.8199C83.752 39.324 79.3933 42.5788 74.7654 42.3721L64.3661 41.9054C62.6626 41.8293 60.9909 42.8219 60.2073 44.3789L53.9395 56.8144C53.4262 57.8365 54.0531 58.9325 55.1774 58.9722L145.365 61.9681C146.352 61.9999 147.19 61.0164 147.009 60.0375L144.779 48.0176ZM107.657 18.9103C106.414 18.8331 105.552 17.7531 105.733 16.4982C105.913 15.2433 107.068 14.2916 108.31 14.3722C109.551 14.4528 110.407 15.5329 110.227 16.7832C110.046 18.0336 108.897 18.9864 107.657 18.9103V18.9103Z" fill="url(#paint1_linear)"/>
<path d="M145.313 48.2954C145.191 47.5742 144.823 46.9173 144.273 46.4355C143.722 45.9537 143.022 45.6764 142.291 45.6504L132.811 45.2257C128.506 45.0326 125.353 41.5371 125.511 37.1091L125.876 26.8483C125.944 24.9506 124.588 23.4299 122.726 23.3186L119.612 23.1335C117.236 22.9916 115.655 20.8974 115.988 18.4773C116.571 14.2458 113.671 10.5946 109.469 10.3084C105.234 10.02 101.282 13.2543 100.652 17.5404C100.56 18.1883 100.336 18.8103 99.9932 19.3676C99.0154 20.9371 97.3005 21.8014 95.6209 21.7014L92.408 21.5129C90.4615 21.3994 88.6115 22.7622 88.1175 24.686L85.4464 35.1012C84.2914 39.6053 79.9327 42.8601 75.3049 42.6534L64.9044 42.1821C63.2009 42.106 61.5303 43.0986 60.7456 44.6556L54.479 57.09C53.9656 58.1121 54.5925 59.2092 55.7157 59.2478L145.904 62.2426C146.892 62.2755 147.729 61.292 147.547 60.3119L145.313 48.2954ZM108.19 19.1882C106.949 19.111 106.086 18.031 106.268 16.776C106.449 15.5211 107.602 14.5694 108.845 14.6501C110.087 14.7307 110.941 15.8107 110.76 17.0611C110.58 18.3115 109.431 19.2643 108.19 19.1882Z" fill="#97A6B7"/>
<g style="mix-blend-mode:soft-light" opacity="0.5">
<path d="M129.878 54.0102C121.833 49.0439 115.661 52.5656 110.647 46.969C105.28 40.9727 108.899 33.0775 103.346 29.3525C99.791 26.9676 96.6191 29.072 92.4841 28.4258C90.9692 28.1896 89.3531 27.5877 87.6746 26.4146L85.4464 35.1013C84.2914 39.6054 79.9327 42.8602 75.3049 42.6535L64.9044 42.1822C63.2009 42.1061 61.5303 43.0987 60.7456 44.6557L54.479 57.0913C53.9656 58.1134 54.5925 59.2093 55.7157 59.249L137.678 61.9746C135.619 58.6903 133.049 55.9681 129.878 54.0102Z" fill="white"/>
</g>
<path d="M157.897 85.2821L42.0151 84.8619V79.229L157.897 79.9854V85.2821Z" fill="#D8DEE8"/>
<path d="M157.897 119.333L42.0151 121.077V115.444L157.897 114.036V119.333Z" fill="#D8DEE8"/>
<path d="M157.897 134.088L42.0151 136.771V131.137L157.897 128.791V134.088Z" fill="#D8DEE8"/>
<path d="M157.897 148.844L42.0151 152.464V146.831L157.897 143.547V148.844Z" fill="#D8DEE8"/>
<path d="M157.897 163.219L42.0151 167.755V162.523L157.897 158.301V163.219Z" fill="#D8DEE8"/>
<path d="M157.897 177.974L42.0151 183.448V178.217L157.897 173.057V177.974Z" fill="#D8DEE8"/>
<path d="M92.5013 219.5L42.0151 222.883V221.273L92.5013 217.932V219.5Z" fill="#D8DEE8"/>
<path d="M157.897 193.108L129.774 194.66V190.434L157.897 188.947V193.108Z" fill="#D8DEE8"/>
<path d="M157.897 204.08L129.774 205.8V201.574L157.897 199.918V204.08Z" fill="#D8DEE8"/>
<path d="M157.897 215.051L129.774 216.941V212.33L157.897 210.512V215.051Z" fill="#D8DEE8"/>
<path d="M52.3315 225.31C52.3315 225.31 52.8857 224.35 53.8828 222.698C54.3791 221.87 54.9935 220.874 55.7078 219.737C56.4222 218.6 57.2365 217.329 58.1518 215.959C59.0672 214.588 60.0745 213.12 61.2351 211.624C61.8297 210.845 62.4722 210.104 63.159 209.406C63.3429 209.228 63.5349 209.05 63.7461 208.881C63.9721 208.694 64.2213 208.536 64.4877 208.412C64.6636 208.333 64.8537 208.291 65.0464 208.287C65.1703 208.289 65.2929 208.313 65.4076 208.36C65.5298 208.412 65.6394 208.489 65.729 208.587C66.0697 208.97 66.0697 209.382 66.1231 209.585C66.3108 210.647 66.3895 211.724 66.3581 212.802C66.3436 213.361 66.2939 213.919 66.2094 214.472C66.1253 215.057 65.9792 215.632 65.7733 216.186C65.6545 216.503 65.4921 216.802 65.2906 217.074C65.1619 217.244 65.0034 217.39 64.8227 217.503C64.6039 217.641 64.3443 217.698 64.0879 217.666C63.8738 217.631 63.6725 217.54 63.5042 217.403L63.4667 217.374L63.4134 217.329C63.3759 217.299 63.3464 217.269 63.3157 217.24C63.2497 217.177 63.1885 217.109 63.1328 217.036C63.0011 216.866 62.9053 216.671 62.8512 216.463C62.7926 216.229 62.7872 215.986 62.8353 215.75C62.9208 215.368 63.0977 215.012 63.3509 214.713C63.5487 214.471 63.7697 214.249 64.0107 214.05C64.4477 213.691 64.9169 213.374 65.4121 213.101C66.3472 212.586 67.3323 212.167 68.3524 211.852C69.354 211.544 70.3693 211.314 71.4278 211.279C71.9559 211.271 72.4987 211.296 73.0677 211.524C73.391 211.651 73.6717 211.866 73.8774 212.146C73.9058 212.186 73.9331 212.227 73.9581 212.27C73.983 212.313 74.008 212.36 74.0182 212.384L74.1034 212.552L74.276 212.892C74.5032 213.347 74.711 213.784 74.9381 214.179C75.1319 214.545 75.3857 214.875 75.6888 215.157C75.9462 215.385 76.274 215.519 76.6178 215.535C76.9994 215.539 77.378 215.468 77.733 215.328C78.5019 215.043 79.248 214.575 79.9555 214.079C80.6846 213.567 81.3955 213.066 82.0997 212.596C82.4529 212.362 82.8049 212.134 83.1695 211.924C83.5374 211.702 83.9276 211.521 84.3335 211.381C84.7434 211.251 85.1751 211.205 85.6032 211.245C85.9939 211.28 86.3334 211.35 86.6594 211.409L87.1364 211.499C87.2885 211.525 87.4634 211.56 87.5509 211.564C87.7481 211.585 87.9471 211.543 88.1187 211.443C88.2798 211.338 88.409 211.19 88.4924 211.016C88.5885 210.817 88.6496 210.602 88.6729 210.381C88.7249 209.96 88.6762 209.532 88.531 209.132C88.4252 208.822 88.2459 208.542 88.0086 208.317C87.8345 208.155 87.6287 208.031 87.4044 207.952C87.2594 207.902 87.1094 207.868 86.9569 207.85C86.8502 207.839 86.7934 207.836 86.7934 207.836C86.7613 207.834 86.7301 207.824 86.7017 207.809C86.6733 207.794 86.6484 207.773 86.6283 207.748C86.6082 207.723 86.5934 207.694 86.5849 207.663C86.5764 207.632 86.5743 207.599 86.5788 207.567C86.5821 207.51 86.6036 207.455 86.6401 207.41C86.6766 207.365 86.7263 207.333 86.782 207.319C86.782 207.319 86.8468 207.305 86.9762 207.288C87.1691 207.26 87.3649 207.26 87.5577 207.288C87.8807 207.33 88.1895 207.446 88.4594 207.629C88.8401 207.89 89.1449 208.248 89.343 208.665C89.6028 209.213 89.72 209.817 89.6837 210.421C89.6626 210.794 89.5769 211.16 89.4304 211.503C89.2643 211.905 88.9829 212.248 88.6218 212.49C88.2622 212.722 87.838 212.832 87.4112 212.805C87.2341 212.792 87.0581 212.768 86.8842 212.732L86.3993 212.645C86.0756 212.585 85.7486 212.522 85.4453 212.497C85.1536 212.468 84.859 212.499 84.58 212.589C83.9917 212.783 83.3194 213.221 82.6414 213.67C81.9634 214.12 81.2547 214.628 80.5279 215.147C79.7772 215.673 78.972 216.195 78.0294 216.55C77.5373 216.743 77.0122 216.837 76.4838 216.827C76.2005 216.812 75.9214 216.752 75.657 216.649C75.3899 216.542 75.1424 216.391 74.9245 216.203C74.5197 215.837 74.1795 215.405 73.9183 214.925C73.6571 214.471 73.4368 214.017 73.2165 213.57L73.0507 213.243L72.9643 213.076C72.956 213.058 72.9465 213.04 72.936 213.023C72.9298 213.012 72.923 213.001 72.9155 212.991C72.8261 212.882 72.7082 212.8 72.5748 212.754C72.2534 212.62 71.8139 212.581 71.3733 212.595C70.4795 212.624 69.5323 212.836 68.6079 213.125C67.6694 213.42 66.7624 213.807 65.9005 214.281C65.4752 214.512 65.0719 214.781 64.6955 215.085C64.5232 215.226 64.3646 215.382 64.222 215.552C64.1176 215.668 64.04 215.805 63.9948 215.954C63.9874 215.984 63.9874 216.015 63.9948 216.045C64.0079 216.087 64.0292 216.125 64.0573 216.159C64.0783 216.186 64.1015 216.213 64.1266 216.237L64.1674 216.274L64.1845 216.29L64.2208 216.319C64.2431 216.339 64.2684 216.355 64.2958 216.368C64.289 216.368 64.2617 216.375 64.281 216.368C64.3248 216.339 64.3632 216.304 64.3946 216.262C64.5122 216.099 64.6074 215.92 64.6774 215.732C64.8468 215.276 64.9678 214.805 65.0385 214.324C65.1167 213.83 65.1637 213.331 65.1793 212.83C65.2115 211.847 65.1445 210.863 64.9794 209.893L64.9465 209.71L64.9386 209.664V209.639C64.936 209.621 64.9318 209.604 64.9261 209.588C64.9102 209.527 64.8886 209.497 64.9011 209.515C64.9195 209.532 64.943 209.543 64.9681 209.547C64.9287 209.552 64.8905 209.564 64.8545 209.581C64.6868 209.661 64.5296 209.762 64.3866 209.881C64.2208 210.011 64.055 210.162 63.8926 210.319C63.2446 210.973 62.6378 211.667 62.0755 212.396C60.9399 213.838 59.9234 215.276 59.0024 216.617C57.1592 219.309 55.7022 221.627 54.6801 223.249C53.658 224.87 53.0901 225.814 53.0901 225.814C53.0611 225.868 53.0213 225.916 52.9732 225.955C52.925 225.993 52.8696 226.021 52.8102 226.038C52.7509 226.054 52.6888 226.058 52.6277 226.05C52.5667 226.041 52.5081 226.021 52.4553 225.989C52.3538 225.913 52.2846 225.802 52.2612 225.677C52.2379 225.553 52.2621 225.424 52.3292 225.317L52.3315 225.31Z" fill="#97A6B7"/>
<path d="M315.136 271.952L25.0551 269.794V276.181C25.0554 277.02 25.3559 277.831 25.9023 278.467C26.4487 279.103 27.2049 279.523 28.0339 279.65L110.06 292.228C111.034 292.375 112.021 292.413 113.004 292.342L311.989 278.006C312.845 277.944 313.646 277.56 314.231 276.932C314.816 276.303 315.141 275.477 315.141 274.618L315.136 271.952Z" fill="url(#paint2_linear)"/>
<path d="M209.866 261.599L28.0555 273.283C24.8018 273.492 22.1569 271.27 22.1569 268.32V150.126C22.1569 147.173 24.8018 144.789 28.0555 144.789H209.866C210.502 144.787 211.131 144.911 211.719 145.152C212.306 145.394 212.841 145.75 213.291 146.198C213.741 146.647 214.099 147.179 214.343 147.766C214.587 148.353 214.713 148.982 214.714 149.617V256.462C214.714 259.126 212.547 261.426 209.866 261.599Z" fill="url(#paint3_linear)"/>
<path d="M212.765 261.599L30.9549 273.283C27.7012 273.492 25.0551 271.27 25.0551 268.32V150.126C25.0551 147.173 27.7012 144.789 30.9549 144.789H212.765C213.401 144.787 214.03 144.91 214.618 145.152C215.206 145.394 215.74 145.749 216.191 146.197C216.641 146.646 216.999 147.178 217.243 147.765C217.487 148.352 217.614 148.981 217.615 149.616V256.461C217.615 259.126 215.446 261.426 212.765 261.599Z" fill="url(#paint4_linear)"/>
<path d="M207.102 254.066L37.7631 264.216C35.1158 264.374 32.9637 262.551 32.9637 260.142V156.663C32.9637 154.255 35.1158 152.294 37.7631 152.284L207.102 151.647C207.624 151.643 208.143 151.742 208.627 151.939C209.112 152.135 209.553 152.426 209.924 152.794C210.296 153.161 210.591 153.599 210.793 154.081C210.995 154.563 211.1 155.081 211.101 155.604V249.855C211.101 252.054 209.313 253.933 207.102 254.066Z" fill="url(#paint5_linear)"/>
<g style="mix-blend-mode:soft-light" opacity="0.48">
<path d="M168.961 229.182C154.945 222.324 143.924 231.014 133.289 222.441C126.841 217.243 130.006 213.366 122.072 205.599C113.284 196.995 107.563 199.888 98.7305 192.145C87.5634 182.354 93.1487 174.736 83.5307 167.708C71.8605 159.18 59.2762 167.073 48.1682 158.894C43.3768 155.366 40.7489 150.239 39.3758 144.785H28.5064C26.6018 144.785 25.0551 146.189 25.0551 147.92V270.438C25.0551 272.17 26.6018 273.474 28.5064 273.351L213.802 261.39C214.242 261.358 214.67 261.23 215.055 261.015C215.441 260.801 215.775 260.505 216.035 260.149C202.472 259.694 194.138 255.564 188.812 251.291C178.391 242.927 180.198 234.678 168.961 229.182Z" fill="white"/>
</g>
<path d="M220.012 261.069L25.0551 273.368L110.06 286.401C111.034 286.548 112.021 286.586 113.004 286.514L315.136 271.947L223.114 261.148C222.084 261.029 221.046 261.002 220.012 261.069V261.069Z" fill="url(#paint6_linear)"/>
<path style="mix-blend-mode:multiply" opacity="0.3" d="M53.5024 273.677L215.81 263.286L266.042 269.133L105.133 280.241L53.5024 273.677Z" fill="url(#paint7_linear)"/>
<path d="M147.567 156.457C154.623 157.617 164.204 160.076 174.276 165.692C190.439 174.704 213.876 194.547 209 209.733C206.274 218.228 195.892 221.526 194.122 222.089C180.138 226.532 162.841 219.213 151.559 202.993C150.228 187.482 148.897 171.97 147.567 156.457Z" fill="white"/>
<path d="M77.246 277.209C75.8832 275.268 73.4676 271.248 71.6153 266.014C66.6025 251.862 69.3258 239.163 70.0004 235.565C72.1252 224.244 72.5636 204 66.4287 165.04C66.077 162.788 66.6094 160.487 67.9147 158.619C69.22 156.751 71.197 155.459 73.4324 155.015C104.997 148.656 137.714 151.321 167.833 162.705C168.125 183.092 166.47 199.263 164.933 210.176C162.468 227.659 160.067 233.24 159.786 248.189C159.364 270.685 164.503 273.855 160.581 280.833C149.328 300.887 92.95 299.506 77.246 277.209Z" fill="white"/>
<path d="M114.897 128.452L112.893 147.479C112.805 148.312 112.429 149.088 111.83 149.673C111.231 150.259 110.447 150.617 109.612 150.686L89.1624 152.371L126.965 163.962L144.296 155.698L128.433 150.781C127.768 150.575 127.177 150.181 126.732 149.646C126.287 149.111 126.007 148.458 125.926 147.767C125.465 143.851 125.005 139.934 124.545 136.017L114.897 128.452Z" fill="url(#paint8_linear)"/>
<path d="M70.0911 190.492C74.9155 192.681 77.5161 195.455 79.005 198.012C84.6834 207.762 75.9501 217.318 82.219 229.51C86.5345 237.9 92.2526 236.452 95.0759 244.295C98.6975 254.357 90.816 260.99 91.2146 271.295C91.4179 276.489 93.7426 282.978 101.628 290.393C91.2782 287.538 82.2826 282.589 77.3322 275.559C75.9694 273.617 73.5538 269.597 71.7004 264.364C66.6887 250.212 66.7534 237.531 67.4291 233.933C68.9964 225.6 72.3034 212.407 70.0911 190.492Z" fill="#D9DDE3"/>
<path d="M55.8203 285.452C38.683 277.972 37.1328 249.188 36.3254 234.357C35.6905 222.698 33.0319 173.726 60.8252 159.122C65.6767 156.574 70.3534 155.652 73.7843 155.294C77.122 157.167 85.493 162.474 88.7853 172.486C90.649 178.156 90.3628 183.747 88.4764 191.367C83.5931 211.085 75.3027 214.865 70.6317 227.946C61.125 254.555 81.2411 277.196 71.4176 285.571C66.3343 289.906 56.7004 285.836 55.8203 285.452Z" fill="white"/>
<path d="M108.609 113.633C108.268 114.087 103.885 135.613 119.065 137.865C134.244 140.117 134.914 124.209 134.721 117.46C134.528 110.711 127.583 108.261 123.61 107.789C119.636 107.316 109.807 112.011 108.609 113.633Z" fill="url(#paint9_linear)"/>
<path d="M107.728 126.199C107.728 126.199 106.967 122.679 104.368 124.875C101.768 127.071 105.902 132.891 109.314 132.65L107.728 126.199Z" fill="url(#paint10_linear)"/>
<path d="M134.256 123.748C133.819 124.043 132.568 132.302 132.568 132.302C132.568 132.302 134.758 132.56 136.345 129.594C137.931 126.629 138.685 120.746 134.256 123.748Z" fill="url(#paint11_linear)"/>
<path d="M140.22 107.971C138.621 105.318 134.581 106.575 133.406 104.016C132.416 101.866 134.744 99.8449 133.494 97.9869C132.45 96.4333 129.895 96.4719 129.441 96.4787C125.99 96.5321 125.201 99.2645 122.741 99.2044C119.736 99.1294 119.619 95.0217 115.646 93.2921C111.791 91.6135 106.155 92.9809 103.878 96.1312C102.108 98.5775 103.614 100.375 101.293 103.513C99.6958 105.671 98.2841 105.77 97.4914 107.884C96.7476 109.871 97.2507 111.763 97.6447 113.169C98.5896 116.538 100.351 118.025 103.012 121.61C104.686 123.871 106.194 126.25 107.524 128.729C108.564 131.511 109.451 134.348 110.18 137.227C111.031 140.584 110.975 141.264 111.77 142.351C114.513 146.098 120.773 145.736 123.407 145.584C126.427 145.409 130.187 145.191 132.078 142.568C133.1 141.149 132.972 139.868 133.214 136.442C133.451 133.072 133.889 129.719 134.527 126.401C134.834 124.954 135.246 123.53 135.761 122.143C136.862 119.207 138.004 118.736 139.245 115.707C140.236 113.275 141.525 110.132 140.22 107.971ZM127.647 130.878C125.781 131.382 124.521 130.929 121.992 130.784C116.933 130.493 115.333 132.862 112.944 131.821C111.948 131.387 109.651 130.172 109.158 127.846C108.788 125.879 108.735 123.866 109.001 121.883C109.397 118.965 109.853 115.598 112.192 114.109C115.585 111.951 119.914 115.666 123.029 113.257C124.218 112.336 124.696 110.931 124.914 109.864C125.605 110.102 131.1 112.1 133.123 117.968C134.372 121.585 133.656 124.81 133.049 126.564C131.91 128.281 130.168 130.197 127.647 130.878Z" fill="url(#paint12_linear)"/>
<path d="M117.152 134.437C119.825 135.284 122.706 135.204 125.329 134.21C125.67 134.081 125.963 134.454 125.677 134.657C124.501 135.494 122.784 136.382 120.916 136.247C119.371 136.133 117.953 135.537 116.86 134.917C116.549 134.73 116.797 134.327 117.152 134.437Z" fill="url(#paint13_linear)"/>
<path d="M171.302 0C170.639 0 170.004 0.263233 169.535 0.731787C169.067 1.20034 168.804 1.83584 168.804 2.49847V202.993H173.79V2.49393C173.789 1.83385 173.527 1.20106 173.061 0.733777C172.594 0.266496 171.962 0.00269926 171.302 0Z" fill="url(#paint14_linear)"/>
<path d="M145.344 85.9292C147.162 65.0992 150.848 47.1173 155.705 34.2901C158.19 27.7299 160.959 22.5733 163.9 19.0749C166.846 15.57 169.857 13.8481 172.839 13.8481C175.821 13.8481 178.832 15.57 181.778 19.075C184.719 22.5733 187.488 27.7299 189.973 34.2901C194.829 47.1143 198.515 65.0911 200.333 85.9151C182.726 81.5025 164.422 81.3269 145.344 85.9292Z" fill="url(#paint15_radial)" stroke="#E8501D" stroke-width="2"/>
<path d="M148.979 15.7028C119.936 25.3193 97.0436 52.0527 88.5111 85.9445C77.8755 82.5264 66.5816 82.3935 54.6096 85.7368C66.8606 50.3643 103.322 22.9027 148.979 15.7028Z" fill="url(#paint16_radial)" stroke="#E8501D" stroke-width="2"/>
<path d="M166.226 14.1448C164.885 15.0979 163.598 16.3261 162.369 17.7881C159.227 21.5266 156.36 26.9139 153.835 33.5818C148.873 46.6861 145.152 64.9503 143.332 85.9892C126.222 81.9534 108.642 81.881 90.587 85.8964C100.706 46.4985 130.463 17.3661 166.226 14.1448Z" fill="url(#paint17_radial)" stroke="#E8501D" stroke-width="2"/>
<path d="M257.167 85.9445C248.634 52.0527 225.742 25.3193 196.699 15.7028C242.357 22.9027 278.823 50.3644 291.069 85.7368C279.097 82.3935 267.802 82.5264 257.167 85.9445Z" fill="url(#paint18_radial)" stroke="#E8501D" stroke-width="2"/>
<path d="M183.309 17.7881C182.081 16.3261 180.793 15.0979 179.452 14.1448C215.215 17.3661 244.971 46.4985 255.091 85.8964C237.036 81.881 219.457 81.9534 202.347 85.9892C200.527 64.9503 196.805 46.6861 191.843 33.5818C189.318 26.9139 186.452 21.5266 183.309 17.7881Z" fill="url(#paint19_radial)" stroke="#E8501D" stroke-width="2"/>
<path d="M157.582 227.075H152.142C142.417 227.075 134.505 219.163 134.505 209.438V202.993C134.505 201.954 134.918 200.958 135.653 200.223C136.387 199.488 137.384 199.075 138.423 199.075C139.462 199.075 140.459 199.488 141.194 200.223C141.928 200.958 142.341 201.954 142.341 202.993V209.436C142.344 212.035 143.378 214.527 145.216 216.365C147.053 218.203 149.545 219.236 152.144 219.239H157.584C160.183 219.236 162.675 218.203 164.513 216.365C166.351 214.527 167.385 212.035 167.387 209.436V182.688C167.387 181.648 167.8 180.652 168.535 179.917C169.27 179.182 170.266 178.77 171.305 178.77C172.344 178.77 173.341 179.182 174.076 179.917C174.811 180.652 175.223 181.648 175.223 182.688V209.438C175.218 219.163 167.304 227.075 157.582 227.075Z" fill="url(#paint20_linear)"/>
<path d="M177.902 199.986C193.512 193.7 207.395 199.25 210.235 207.355C212.536 213.923 208.158 223.797 200.962 226.374C192.785 229.304 180.656 222.916 177.427 209.495C177.586 206.325 177.744 203.156 177.902 199.986Z" fill="white"/>
<path d="M177.902 199.985C177.902 199.985 176.121 194.648 166.789 193.631C166.789 193.631 164.113 193.631 165.729 204.08C165.964 205.598 172.43 210.212 177.427 209.496C177.427 209.494 180.095 202.902 177.902 199.985Z" fill="url(#paint21_linear)"/>
<path d="M122.634 162.642C122.634 162.642 123.883 169.335 125.847 169.465C126.985 169.538 128.119 169.669 129.244 169.857L131.435 161.672C131.435 161.672 128.578 164 122.634 162.642Z" fill="url(#paint22_linear)"/>
<path d="M124.917 168.908C124.917 168.908 120.556 217.867 105.27 225.705C105.662 227.274 105.27 240.015 105.27 240.015C105.27 240.015 119.518 235.725 120.33 236.008C121.142 236.291 137.585 209.036 129.241 169.862L124.917 168.908Z" fill="url(#paint23_linear)"/>
<path d="M218.002 261.536V270.417C218.002 273.287 235.927 275.614 258.04 275.614C280.152 275.614 298.079 273.287 298.079 270.417V261.536H218.002Z" fill="url(#paint24_linear)"/>
<path d="M298.079 261.537C298.079 264.407 280.153 266.734 258.04 266.734C235.926 266.734 218.002 264.407 218.002 261.537C218.002 258.667 235.927 256.341 258.04 256.341C280.152 256.341 298.079 258.668 298.079 261.537Z" fill="url(#paint25_linear)"/>
<path d="M258.044 267.091C238.461 267.091 217.983 265.221 217.983 261.613C217.983 261.415 218.053 261.066 218.252 261.066C218.45 261.066 218.365 261.339 218.365 261.537C218.365 263.825 234.662 266.375 258.046 266.375C281.429 266.375 297.726 263.825 297.726 261.537C297.726 261.339 297.76 261.153 297.953 261.153C298.146 261.153 298.103 261.417 298.103 261.616C298.103 265.227 277.625 267.091 258.044 267.091Z" fill="url(#paint26_linear)"/>
<path d="M254.257 261.827C254.65 261.555 255.068 261.287 255.515 261.023C256.058 260.717 256.635 260.476 257.235 260.305C258.099 260.059 258.982 259.885 259.875 259.784C261.187 259.634 262.507 259.563 263.828 259.57C265.375 259.563 266.828 259.612 268.186 259.718C269.389 259.803 270.585 259.961 271.769 260.191C272.798 260.403 273.637 260.663 274.286 260.973C274.934 261.282 275.317 261.637 275.435 262.038L279.943 262.083C280.233 262.082 280.523 262.109 280.808 262.164C281.06 262.215 281.181 262.278 281.182 262.359V262.73L275.391 262.674C275.188 263.128 274.67 263.545 273.837 263.923C273.004 264.302 271.944 264.628 270.657 264.903L268.546 264.61C268.387 264.587 268.232 264.549 268.08 264.497C267.959 264.452 267.9 264.404 267.9 264.351C267.9 264.279 268.063 264.198 268.389 264.107C268.715 264.016 269.084 263.903 269.494 263.766C269.906 263.63 270.31 263.471 270.704 263.288C271.097 263.104 271.36 262.885 271.499 262.63L257.818 262.493C257.43 262.776 257.027 263.036 256.61 263.274C256.049 263.574 255.453 263.805 254.836 263.963C253.932 264.197 253.012 264.363 252.083 264.459C250.704 264.602 249.319 264.669 247.932 264.662C246.683 264.669 245.458 264.622 244.262 264.52C243.193 264.438 242.131 264.286 241.082 264.066C240.293 263.911 239.525 263.66 238.797 263.318C238.204 263.021 237.87 262.68 237.802 262.296L234.091 262.258C233.797 262.259 233.503 262.233 233.214 262.181C232.957 262.131 232.827 262.067 232.827 261.983V261.612L237.902 261.66C238.129 261.269 238.584 260.928 239.289 260.638C240.124 260.306 240.985 260.047 241.864 259.862L243.568 260.096C244.085 260.169 244.34 260.253 244.341 260.35C244.341 260.404 244.237 260.464 244.023 260.546C243.81 260.627 243.554 260.717 243.261 260.825C242.972 260.934 242.689 261.061 242.416 261.207C242.176 261.323 241.965 261.493 241.799 261.702L254.257 261.827ZM241.737 262.333C241.839 262.576 242.067 262.787 242.412 262.962C242.821 263.162 243.254 263.308 243.701 263.397C244.274 263.52 244.854 263.604 245.438 263.648C246.084 263.701 246.76 263.725 247.464 263.722C248.183 263.724 248.901 263.689 249.615 263.616C250.157 263.561 250.694 263.47 251.223 263.344C251.638 263.246 252.043 263.112 252.434 262.944C252.755 262.804 253.064 262.639 253.359 262.45L241.737 262.333ZM271.518 262.002C271.417 261.754 271.168 261.538 270.781 261.352C270.307 261.139 269.809 260.982 269.299 260.884C268.605 260.745 267.903 260.651 267.197 260.602C266.399 260.541 265.519 260.513 264.554 260.517C263.815 260.514 263.076 260.552 262.341 260.631C261.798 260.69 261.26 260.787 260.731 260.923C260.332 261.024 259.945 261.168 259.576 261.35C259.27 261.505 258.974 261.68 258.689 261.872L271.518 262.002Z" fill="#FCB048"/>
<path d="M258.045 256.903C240.192 256.903 221.603 258.475 218.63 261.516C218.746 261.622 218.855 261.736 218.955 261.857C221.462 259.747 236.808 257.619 258.045 257.619C279.824 257.619 295.419 259.855 297.308 262.018C297.401 261.899 297.501 261.785 297.608 261.678C295.153 258.533 276.215 256.903 258.045 256.903Z" fill="url(#paint27_linear)"/>
<path d="M206.871 252.209V261.09C206.871 263.959 224.797 266.286 246.91 266.286C269.024 266.286 286.948 263.959 286.948 261.09V252.209H206.871Z" fill="url(#paint28_linear)"/>
<path d="M286.948 252.21C286.948 255.078 269.023 257.405 246.91 257.405C224.798 257.405 206.871 255.078 206.871 252.21C206.871 249.341 224.797 247.013 246.91 247.013C269.024 247.013 286.948 249.34 286.948 252.21Z" fill="url(#paint29_linear)"/>
<path d="M246.915 257.763C227.332 257.763 206.853 255.893 206.853 252.285C206.853 252.087 206.925 251.738 207.122 251.738C207.32 251.738 207.236 252.011 207.236 252.21C207.236 254.497 223.533 257.046 246.916 257.046C270.3 257.046 286.596 254.497 286.596 252.21C286.596 252.011 286.631 251.826 286.829 251.826C287.028 251.826 286.979 252.09 286.979 252.288C286.972 255.896 266.494 257.763 246.915 257.763Z" fill="url(#paint30_linear)"/>
<path d="M243.126 252.499C243.519 252.227 243.937 251.959 244.384 251.694C244.928 251.388 245.505 251.148 246.105 250.978C246.969 250.731 247.852 250.556 248.744 250.455C250.057 250.306 251.377 250.235 252.698 250.242C254.244 250.233 255.697 250.283 257.055 250.389C258.258 250.474 259.455 250.633 260.639 250.864C261.667 251.074 262.507 251.334 263.155 251.644C263.802 251.954 264.177 252.31 264.304 252.709L268.813 252.756C269.103 252.754 269.392 252.781 269.677 252.835C269.929 252.887 270.051 252.949 270.052 253.031V253.402L264.26 253.345C264.057 253.8 263.539 254.216 262.706 254.595C261.873 254.973 260.813 255.3 259.526 255.575L257.416 255.282C257.257 255.259 257.101 255.221 256.95 255.168C256.828 255.124 256.769 255.075 256.769 255.023C256.769 254.951 256.931 254.869 257.258 254.779C257.585 254.688 257.953 254.573 258.363 254.438C258.776 254.302 259.179 254.143 259.573 253.96C259.967 253.776 260.229 253.557 260.368 253.301L246.688 253.167C246.3 253.45 245.896 253.71 245.479 253.947C244.918 254.248 244.322 254.48 243.705 254.637C242.801 254.871 241.881 255.038 240.952 255.134C239.573 255.275 238.188 255.343 236.802 255.336C235.552 255.343 234.327 255.295 233.131 255.194C232.062 255.111 231 254.959 229.951 254.74C229.162 254.585 228.395 254.334 227.666 253.993C227.073 253.695 226.741 253.353 226.671 252.971L222.96 252.932C222.666 252.933 222.373 252.907 222.083 252.855C221.827 252.805 221.696 252.741 221.696 252.657V252.286L226.771 252.335C226.998 251.943 227.453 251.602 228.158 251.313C228.993 250.982 229.855 250.723 230.734 250.538L232.437 250.765C232.954 250.838 233.209 250.922 233.211 251.02C233.211 251.073 233.106 251.133 232.893 251.216C232.679 251.299 232.424 251.386 232.131 251.495C231.841 251.603 231.559 251.73 231.286 251.876C231.046 251.993 230.834 252.162 230.668 252.371L243.126 252.499ZM230.607 253.005C230.709 253.248 230.936 253.459 231.281 253.634C231.69 253.833 232.124 253.979 232.57 254.069C233.143 254.193 233.724 254.279 234.309 254.325C234.955 254.379 235.63 254.404 236.335 254.4C237.053 254.401 237.771 254.366 238.486 254.294C239.027 254.238 239.564 254.147 240.094 254.021C240.508 253.923 240.913 253.789 241.305 253.621C241.625 253.482 241.934 253.316 242.229 253.127L230.607 253.005ZM260.387 252.673C260.286 252.427 260.037 252.21 259.65 252.025C259.178 251.811 258.683 251.654 258.174 251.557C257.48 251.417 256.778 251.322 256.072 251.274C255.274 251.213 254.394 251.184 253.429 251.189C252.69 251.186 251.951 251.224 251.216 251.302C250.673 251.361 250.135 251.459 249.606 251.594C249.207 251.696 248.82 251.839 248.451 252.021C248.145 252.177 247.849 252.351 247.564 252.544L260.387 252.673Z" fill="#FCB048"/>
<path d="M246.915 247.576C229.062 247.576 210.475 249.147 207.5 252.188C207.616 252.294 207.725 252.408 207.826 252.529C210.332 250.418 225.681 248.292 246.915 248.292C268.695 248.292 284.29 250.528 286.178 252.691C286.271 252.572 286.371 252.458 286.478 252.351C284.023 249.205 265.086 247.576 246.915 247.576Z" fill="url(#paint31_linear)"/>
<path d="M216.479 242.908V251.789C216.479 254.659 234.404 256.985 256.517 256.985C278.63 256.985 296.556 254.659 296.556 251.789V242.908H216.479Z" fill="url(#paint32_linear)"/>
<path d="M256.514 248.104C278.627 248.104 296.553 245.778 296.553 242.908C296.553 240.039 278.627 237.712 256.514 237.712C234.401 237.712 216.474 240.039 216.474 242.908C216.474 245.778 234.401 248.104 256.514 248.104Z" fill="url(#paint33_linear)"/>
<path d="M256.513 248.463C236.93 248.463 216.451 246.593 216.451 242.985C216.451 242.786 216.522 242.438 216.721 242.438C216.919 242.438 216.834 242.71 216.834 242.909C216.834 245.197 233.131 247.745 256.514 247.745C279.898 247.745 296.195 245.197 296.195 242.909C296.195 242.71 296.229 242.525 296.422 242.525C296.615 242.525 296.573 242.789 296.573 242.987C296.576 246.595 276.101 248.463 256.513 248.463Z" fill="url(#paint34_linear)"/>
<path d="M252.731 243.195C253.124 242.923 253.542 242.655 253.989 242.39C254.532 242.084 255.109 241.844 255.708 241.674C256.573 241.428 257.455 241.253 258.348 241.151C259.661 241.002 260.981 240.931 262.302 240.938C263.849 240.931 265.301 240.98 266.66 241.085C267.863 241.171 269.059 241.329 270.243 241.56C271.272 241.77 272.111 242.03 272.759 242.34C273.408 242.651 273.791 243.006 273.909 243.407L278.417 243.452C278.707 243.45 278.997 243.477 279.282 243.531C279.534 243.584 279.655 243.645 279.656 243.727V244.104L273.864 244.048C273.661 244.502 273.143 244.919 272.311 245.297C271.479 245.676 270.419 246.003 269.131 246.279L267.02 245.985C266.861 245.962 266.705 245.924 266.554 245.871C266.433 245.827 266.374 245.779 266.374 245.726C266.374 245.654 266.536 245.573 266.863 245.481C267.19 245.389 267.558 245.277 267.968 245.141C268.38 245.004 268.784 244.844 269.178 244.661C269.57 244.479 269.834 244.258 269.972 244.003L256.292 243.868C255.904 244.15 255.501 244.41 255.084 244.647C254.523 244.947 253.927 245.179 253.31 245.336C252.406 245.571 251.486 245.737 250.557 245.833C249.178 245.975 247.792 246.043 246.406 246.037C245.157 246.037 243.932 245.995 242.736 245.894C241.667 245.81 240.605 245.658 239.556 245.439C238.767 245.283 237.999 245.032 237.271 244.691C236.678 244.393 236.344 244.053 236.276 243.669L232.565 243.63C232.271 243.631 231.977 243.605 231.688 243.553C231.431 243.504 231.301 243.439 231.301 243.355V242.984L236.376 243.033C236.603 242.642 237.057 242.3 237.763 242.011C238.598 241.68 239.459 241.421 240.338 241.236L242.042 241.469C242.559 241.542 242.814 241.627 242.815 241.725C242.815 241.777 242.711 241.838 242.497 241.92C242.284 242.002 242.028 242.091 241.735 242.199C241.445 242.307 241.163 242.435 240.89 242.581C240.65 242.698 240.439 242.866 240.272 243.075L252.731 243.195ZM240.215 243.703C240.317 243.947 240.544 244.157 240.889 244.332C241.298 244.532 241.732 244.679 242.178 244.768C242.751 244.89 243.332 244.973 243.916 245.018C244.562 245.071 245.238 245.096 245.942 245.093C246.66 245.094 247.377 245.058 248.092 244.986C248.633 244.931 249.171 244.84 249.701 244.714C250.115 244.615 250.52 244.482 250.911 244.314C251.232 244.174 251.541 244.009 251.836 243.821L240.215 243.703ZM269.995 243.371C269.894 243.125 269.645 242.908 269.258 242.723C268.784 242.51 268.287 242.352 267.776 242.255C267.082 242.116 266.38 242.021 265.674 241.972C264.877 241.911 263.996 241.882 263.031 241.887C262.292 241.885 261.553 241.923 260.818 242.001C260.275 242.059 259.737 242.157 259.209 242.292C258.81 242.394 258.422 242.538 258.054 242.721C257.747 242.876 257.451 243.05 257.167 243.242L269.995 243.371Z" fill="#FCB048"/>
<path d="M256.519 238.275C238.667 238.275 220.078 239.846 217.105 242.887C217.221 242.993 217.329 243.107 217.43 243.228C219.936 241.116 235.285 238.99 256.519 238.99C278.299 238.99 293.894 241.228 295.783 243.391C295.875 243.271 295.975 243.157 296.083 243.05C293.626 239.902 274.689 238.275 256.519 238.275Z" fill="url(#paint35_linear)"/>
<path d="M222.304 233.58V242.461C222.304 245.331 240.229 247.657 262.342 247.657C284.454 247.657 302.381 245.331 302.381 242.461V233.58H222.304Z" fill="url(#paint36_linear)"/>
<path d="M302.381 233.58C302.381 236.45 284.454 238.776 262.342 238.776C240.229 238.776 222.304 236.45 222.304 233.58C222.304 230.71 240.229 228.384 262.342 228.384C284.454 228.384 302.381 230.71 302.381 233.58Z" fill="url(#paint37_linear)"/>
<path d="M262.342 239.135C242.758 239.135 222.28 237.265 222.28 233.657C222.28 233.458 222.35 233.11 222.549 233.11C222.748 233.11 222.662 233.383 222.662 233.581C222.662 235.869 238.959 238.417 262.343 238.417C285.726 238.417 302.023 235.869 302.023 233.581C302.023 233.383 302.057 233.197 302.25 233.197C302.443 233.197 302.401 233.461 302.401 233.659C302.405 237.267 281.925 239.135 262.342 239.135Z" fill="url(#paint38_linear)"/>
<path d="M258.559 233.87C258.952 233.598 259.37 233.33 259.817 233.064C260.36 232.759 260.937 232.518 261.536 232.348C262.401 232.102 263.283 231.927 264.176 231.825C265.489 231.677 266.809 231.605 268.13 231.612C269.677 231.605 271.129 231.654 272.488 231.76C273.691 231.845 274.887 232.004 276.071 232.234C277.1 232.445 277.938 232.705 278.586 233.015C279.234 233.324 279.618 233.68 279.737 234.081L284.245 234.126C284.535 234.125 284.825 234.151 285.11 234.206C285.362 234.258 285.483 234.319 285.483 234.401V234.773L279.691 234.717C279.488 235.171 278.97 235.588 278.137 235.966C277.303 236.345 276.243 236.672 274.957 236.947L272.845 236.653C272.687 236.631 272.531 236.593 272.38 236.54C272.258 236.495 272.199 236.448 272.198 236.394C272.198 236.323 272.362 236.242 272.688 236.15C273.014 236.058 273.384 235.946 273.794 235.809C274.206 235.674 274.61 235.513 275.003 235.33C275.396 235.147 275.66 234.927 275.798 234.671L262.118 234.536C261.73 234.818 261.326 235.078 260.91 235.315C260.348 235.616 259.752 235.848 259.135 236.005C258.231 236.24 257.311 236.406 256.383 236.502C255.004 236.644 253.618 236.712 252.232 236.705C250.983 236.711 249.757 236.663 248.561 236.563C247.491 236.48 246.427 236.328 245.376 236.109C244.587 235.953 243.819 235.702 243.091 235.361C242.499 235.063 242.165 234.723 242.097 234.339L238.385 234.3C238.091 234.302 237.797 234.276 237.508 234.223C237.252 234.174 237.122 234.109 237.122 234.025V233.655L242.196 233.703C242.423 233.312 242.877 232.97 243.584 232.681C244.419 232.35 245.281 232.091 246.159 231.906L247.863 232.133C248.38 232.206 248.635 232.291 248.636 232.389C248.636 232.441 248.532 232.502 248.318 232.584C248.105 232.666 247.849 232.756 247.556 232.863C247.267 232.972 246.984 233.099 246.711 233.245C246.471 233.362 246.259 233.531 246.092 233.74L258.559 233.87ZM246.039 234.375C246.14 234.619 246.368 234.829 246.713 235.005C247.123 235.204 247.556 235.35 248.003 235.44C248.576 235.562 249.156 235.645 249.74 235.69C250.386 235.744 251.061 235.769 251.765 235.765C252.483 235.766 253.201 235.73 253.916 235.658C254.458 235.603 254.995 235.512 255.525 235.387C255.939 235.287 256.343 235.154 256.735 234.987C257.055 234.847 257.364 234.681 257.659 234.493L246.039 234.375ZM275.82 234.043C275.718 233.797 275.47 233.581 275.083 233.395C274.609 233.182 274.111 233.025 273.601 232.927C272.906 232.788 272.204 232.694 271.497 232.645C270.701 232.583 269.82 232.555 268.856 232.559C268.117 232.557 267.378 232.595 266.642 232.673C266.1 232.732 265.562 232.83 265.033 232.966C264.634 233.067 264.247 233.21 263.878 233.393C263.572 233.548 263.276 233.722 262.991 233.914L275.82 234.043Z" fill="#FCB048"/>
<path d="M262.347 228.946C244.495 228.946 225.906 230.517 222.933 233.558C223.049 233.664 223.157 233.778 223.258 233.899C225.764 231.788 241.113 229.662 262.347 229.662C284.127 229.662 299.722 231.899 301.611 234.062C301.703 233.943 301.804 233.829 301.911 233.722C299.454 230.575 280.517 228.946 262.347 228.946Z" fill="url(#paint39_linear)"/>
<path d="M218.002 223.516V232.397C218.002 235.266 235.927 237.592 258.04 237.592C280.152 237.592 298.079 235.266 298.079 232.397V223.516H218.002Z" fill="url(#paint40_linear)"/>
<path d="M298.079 223.515C298.079 226.385 280.153 228.711 258.04 228.711C235.926 228.711 218.002 226.385 218.002 223.515C218.002 220.646 235.927 218.324 258.044 218.324C280.161 218.324 298.079 220.646 298.079 223.515Z" fill="url(#paint41_linear)"/>
<path d="M258.044 229.07C238.461 229.07 217.983 227.2 217.983 223.592C217.983 223.394 218.053 223.045 218.252 223.045C218.45 223.045 218.365 223.318 218.365 223.516C218.365 225.804 234.662 228.354 258.046 228.354C281.429 228.354 297.726 225.804 297.726 223.516C297.726 223.318 297.76 223.132 297.953 223.132C298.146 223.132 298.103 223.396 298.103 223.595C298.103 227.202 277.625 229.07 258.044 229.07Z" fill="url(#paint42_linear)"/>
<path d="M254.257 223.805C254.65 223.534 255.068 223.266 255.515 223C256.059 222.695 256.636 222.454 257.235 222.283C258.099 222.038 258.982 221.863 259.875 221.762C261.188 221.612 262.508 221.541 263.828 221.549C265.375 221.541 266.828 221.59 268.186 221.695C269.389 221.781 270.585 221.939 271.769 222.17C272.798 222.381 273.637 222.641 274.286 222.95C274.935 223.259 275.318 223.614 275.435 224.016L279.944 224.062C280.234 224.06 280.523 224.087 280.808 224.142C281.06 224.194 281.181 224.256 281.183 224.337V224.708L275.391 224.652C275.188 225.107 274.67 225.523 273.837 225.902C273.004 226.28 271.944 226.607 270.657 226.882L268.546 226.588C268.387 226.566 268.231 226.528 268.08 226.474C267.959 226.43 267.9 226.382 267.9 226.33C267.9 226.258 268.063 226.176 268.389 226.086C268.716 225.995 269.084 225.881 269.494 225.745C269.906 225.609 270.31 225.449 270.704 225.267C271.097 225.083 271.36 224.864 271.499 224.607L257.817 224.474C257.43 224.757 257.026 225.017 256.609 225.253C256.048 225.554 255.452 225.786 254.835 225.943C253.931 226.178 253.011 226.344 252.082 226.44C250.703 226.582 249.318 226.65 247.931 226.643C246.682 226.649 245.457 226.602 244.261 226.501C243.192 226.418 242.13 226.266 241.081 226.047C240.292 225.891 239.524 225.64 238.796 225.299C238.203 225.001 237.869 224.66 237.801 224.276L234.09 224.239C233.796 224.239 233.502 224.214 233.213 224.162C232.956 224.112 232.826 224.048 232.826 223.964V223.593L237.901 223.641C238.128 223.25 238.583 222.909 239.288 222.618C240.123 222.288 240.985 222.029 241.863 221.844L243.567 222.078C244.084 222.149 244.339 222.235 244.34 222.332C244.34 222.384 244.236 222.446 244.022 222.528C243.809 222.609 243.553 222.699 243.26 222.807C242.971 222.915 242.688 223.043 242.415 223.189C242.175 223.305 241.964 223.475 241.798 223.684L254.257 223.805ZM241.737 224.312C241.84 224.555 242.067 224.766 242.412 224.941C242.822 225.14 243.255 225.286 243.701 225.376C244.274 225.498 244.854 225.581 245.439 225.626C246.084 225.679 246.76 225.704 247.465 225.701C248.183 225.702 248.901 225.667 249.616 225.595C250.157 225.539 250.694 225.448 251.224 225.322C251.638 225.224 252.043 225.09 252.434 224.923C252.755 224.782 253.064 224.617 253.359 224.429L241.737 224.312ZM271.518 223.979C271.417 223.733 271.168 223.517 270.781 223.331C270.307 223.117 269.81 222.96 269.299 222.863C268.605 222.724 267.903 222.63 267.197 222.581C266.4 222.52 265.519 222.491 264.554 222.496C263.815 222.493 263.076 222.531 262.341 222.609C261.798 222.668 261.26 222.766 260.731 222.901C260.333 223.002 259.945 223.146 259.577 223.328C259.27 223.483 258.974 223.658 258.69 223.851L271.518 223.979Z" fill="#FCB048"/>
<path d="M258.045 218.882C240.192 218.882 221.603 220.453 218.63 223.494C218.746 223.601 218.854 223.714 218.955 223.835C221.461 221.723 236.81 219.598 258.045 219.598C279.824 219.598 295.419 221.834 297.308 223.997C297.401 223.878 297.501 223.764 297.608 223.657C295.153 220.512 276.215 218.882 258.045 218.882Z" fill="url(#paint43_linear)"/>
<path d="M206.871 214.188V223.068C206.871 225.938 224.797 228.265 246.91 228.265C269.024 228.265 286.948 225.938 286.948 223.068V214.188H206.871Z" fill="url(#paint44_linear)"/>
<path d="M246.91 219.383C269.023 219.383 286.95 217.057 286.95 214.187C286.95 211.318 269.023 208.992 246.91 208.992C224.797 208.992 206.871 211.318 206.871 214.187C206.871 217.057 224.797 219.383 246.91 219.383Z" fill="url(#paint45_linear)"/>
<path d="M246.915 219.742C227.332 219.742 206.853 217.872 206.853 214.264C206.853 214.066 206.925 213.717 207.122 213.717C207.32 213.717 207.236 213.99 207.236 214.187C207.236 216.476 223.533 219.025 246.916 219.025C270.3 219.025 286.596 216.476 286.596 214.187C286.596 213.99 286.631 213.804 286.829 213.804C287.028 213.804 286.979 214.068 286.979 214.267C286.972 217.87 266.494 219.742 246.915 219.742Z" fill="url(#paint46_linear)"/>
<path d="M243.126 214.477C243.519 214.205 243.937 213.937 244.384 213.673C244.928 213.366 245.505 213.125 246.105 212.955C246.969 212.709 247.852 212.535 248.744 212.434C250.057 212.284 251.377 212.212 252.698 212.22C254.244 212.212 255.697 212.261 257.055 212.368C258.258 212.453 259.455 212.611 260.639 212.841C261.667 213.053 262.507 213.313 263.155 213.623C263.802 213.933 264.177 214.288 264.304 214.688L268.813 214.733C269.103 214.732 269.392 214.759 269.677 214.814C269.929 214.865 270.051 214.928 270.052 215.009V215.38L264.26 215.324C264.057 215.778 263.539 216.195 262.706 216.573C261.873 216.952 260.813 217.278 259.526 217.553L257.416 217.26C257.257 217.237 257.101 217.199 256.95 217.147C256.828 217.102 256.769 217.054 256.769 217.001C256.769 216.93 256.931 216.848 257.258 216.757C257.585 216.666 257.953 216.552 258.363 216.416C258.775 216.28 259.179 216.121 259.573 215.938C259.967 215.754 260.229 215.535 260.368 215.28L246.688 215.144C246.3 215.427 245.896 215.687 245.479 215.925C244.918 216.225 244.322 216.456 243.705 216.614C242.801 216.848 241.881 217.014 240.952 217.11C239.573 217.252 238.188 217.32 236.802 217.314C235.552 217.32 234.327 217.273 233.131 217.172C232.062 217.089 231 216.937 229.951 216.717C229.162 216.562 228.394 216.311 227.666 215.969C227.073 215.673 226.741 215.331 226.671 214.947L222.96 214.909C222.666 214.91 222.373 214.884 222.083 214.832C221.827 214.782 221.696 214.719 221.696 214.635V214.263L226.771 214.311C226.998 213.92 227.453 213.58 228.158 213.289C228.993 212.959 229.855 212.699 230.734 212.514L232.437 212.748C232.954 212.821 233.209 212.905 233.211 213.003C233.211 213.055 233.106 213.116 232.893 213.198C232.679 213.28 232.424 213.369 232.131 213.477C231.841 213.586 231.559 213.714 231.286 213.859C231.045 213.976 230.834 214.145 230.668 214.354L243.126 214.477ZM230.607 214.983C230.709 215.226 230.936 215.438 231.281 215.612C231.69 215.812 232.124 215.958 232.57 216.047C233.143 216.169 233.724 216.253 234.308 216.298C234.953 216.351 235.629 216.375 236.334 216.372C237.052 216.374 237.77 216.339 238.485 216.267C239.026 216.211 239.563 216.12 240.093 215.994C240.507 215.896 240.912 215.762 241.303 215.594C241.624 215.454 241.933 215.289 242.228 215.1L230.607 214.983ZM260.387 214.652C260.286 214.404 260.037 214.188 259.65 214.002C259.178 213.789 258.682 213.632 258.174 213.534C257.48 213.395 256.778 213.301 256.072 213.252C255.274 213.191 254.394 213.163 253.429 213.167C252.69 213.164 251.951 213.202 251.216 213.281C250.673 213.34 250.135 213.437 249.606 213.573C249.207 213.674 248.82 213.818 248.451 214C248.145 214.155 247.849 214.33 247.564 214.522L260.387 214.652Z" fill="#FCB048"/>
<path d="M246.915 209.554C229.062 209.554 210.475 211.125 207.5 214.167C207.616 214.273 207.725 214.387 207.826 214.507C210.332 212.396 225.681 210.27 246.915 210.27C268.695 210.27 284.29 212.506 286.178 214.67C286.272 214.551 286.372 214.437 286.478 214.329C284.023 211.183 265.086 209.554 246.915 209.554Z" fill="url(#paint47_linear)"/>
<path d="M216.479 204.887V213.768C216.479 216.637 234.404 218.964 256.517 218.964C278.63 218.964 296.556 216.637 296.556 213.768V204.887H216.479Z" fill="url(#paint48_linear)"/>
<path d="M256.514 210.083C278.627 210.083 296.553 207.757 296.553 204.887C296.553 202.018 278.627 199.691 256.514 199.691C234.401 199.691 216.474 202.018 216.474 204.887C216.474 207.757 234.401 210.083 256.514 210.083Z" fill="url(#paint49_linear)"/>
<path d="M256.513 210.441C236.93 210.441 216.451 208.57 216.451 204.962C216.451 204.765 216.522 204.416 216.721 204.416C216.919 204.416 216.834 204.689 216.834 204.887C216.834 207.175 233.131 209.724 256.514 209.724C279.898 209.724 296.195 207.175 296.195 204.887C296.195 204.689 296.229 204.503 296.422 204.503C296.615 204.503 296.573 204.768 296.573 204.966C296.576 208.574 276.101 210.441 256.513 210.441Z" fill="url(#paint50_linear)"/>
<path d="M252.731 205.177C253.124 204.904 253.542 204.636 253.989 204.372C254.532 204.066 255.109 203.825 255.708 203.654C256.573 203.409 257.455 203.235 258.348 203.133C259.661 202.983 260.981 202.912 262.302 202.919C263.849 202.912 265.301 202.961 266.66 203.067C267.863 203.152 269.059 203.31 270.243 203.542C271.272 203.751 272.111 204.011 272.759 204.322C273.408 204.632 273.791 204.987 273.909 205.387L278.417 205.434C278.707 205.431 278.997 205.458 279.282 205.513C279.534 205.564 279.655 205.627 279.656 205.708V206.08L273.864 206.023C273.661 206.477 273.143 206.894 272.311 207.272C271.479 207.651 270.419 207.977 269.131 208.252L267.02 207.959C266.861 207.937 266.705 207.899 266.554 207.846C266.433 207.801 266.374 207.753 266.374 207.7C266.374 207.629 266.537 207.548 266.863 207.456C267.189 207.365 267.558 207.251 267.968 207.116C268.38 206.98 268.784 206.82 269.178 206.637C269.57 206.453 269.834 206.234 269.972 205.979L256.292 205.842C255.904 206.125 255.501 206.385 255.084 206.623C254.523 206.923 253.927 207.155 253.31 207.312C252.406 207.547 251.486 207.713 250.557 207.809C249.178 207.951 247.792 208.018 246.406 208.012C245.157 208.018 243.932 207.971 242.736 207.87C241.667 207.786 240.605 207.634 239.556 207.415C238.767 207.259 237.999 207.008 237.271 206.667C236.678 206.369 236.344 206.028 236.276 205.645L232.565 205.606C232.271 205.607 231.977 205.581 231.688 205.529C231.431 205.479 231.301 205.415 231.301 205.331V204.96L236.376 205.009C236.603 204.617 237.057 204.276 237.763 203.987C238.598 203.656 239.459 203.397 240.338 203.211L242.042 203.445C242.559 203.518 242.814 203.602 242.815 203.699C242.815 203.753 242.711 203.813 242.497 203.896C242.284 203.979 242.028 204.066 241.735 204.175C241.445 204.283 241.163 204.41 240.89 204.556C240.65 204.673 240.439 204.842 240.272 205.051L252.731 205.177ZM240.215 205.682C240.317 205.925 240.544 206.137 240.889 206.311C241.299 206.511 241.732 206.657 242.178 206.748C242.751 206.869 243.332 206.953 243.916 206.997C244.562 207.05 245.238 207.075 245.942 207.072C246.66 207.073 247.377 207.038 248.092 206.966C248.633 206.91 249.171 206.819 249.701 206.693C250.115 206.595 250.52 206.461 250.911 206.293C251.232 206.153 251.541 205.988 251.836 205.799L240.215 205.682ZM269.995 205.351C269.894 205.104 269.645 204.887 269.258 204.702C268.784 204.488 268.287 204.331 267.776 204.234C267.082 204.094 266.38 204 265.674 203.952C264.877 203.89 263.996 203.862 263.031 203.866C262.292 203.864 261.553 203.902 260.818 203.98C260.275 204.039 259.737 204.136 259.209 204.272C258.81 204.373 258.423 204.517 258.054 204.699C257.748 204.855 257.451 205.029 257.167 205.221L269.995 205.351Z" fill="#FCB048"/>
<path d="M256.519 200.253C238.667 200.253 220.078 201.824 217.105 204.865C217.221 204.971 217.329 205.085 217.43 205.206C219.936 203.095 235.285 200.969 256.519 200.969C278.299 200.969 293.894 203.205 295.783 205.368C295.876 205.249 295.976 205.135 296.083 205.028C293.626 201.882 274.689 200.253 256.519 200.253Z" fill="url(#paint51_linear)"/>
<path d="M248.2 148.281C248.2 148.281 243.971 149.701 243.523 156.709C244.212 156.646 245.823 156.684 245.823 156.684C245.823 156.684 245.525 151.59 248.537 150.551C248.295 149.965 248.2 148.281 248.2 148.281Z" fill="url(#paint52_linear)"/>
<path d="M263.893 147.613C263.786 148.901 263.679 150.191 263.571 151.485C261.442 150.935 259.12 150.298 256.631 150.211C253.67 150.11 250.711 150.425 247.838 151.148C247.592 150.798 247.429 150.396 247.361 149.973C247.247 149.298 247.309 148.603 247.542 147.959C248.95 147.439 250.399 147.037 251.873 146.757C256.341 145.913 260.395 146.613 263.893 147.613Z" fill="url(#paint53_linear)"/>
<path d="M264.094 148.727C264.088 148.26 264.052 147.679 263.893 147.613C263.734 147.547 263.542 147.975 263.456 148.21C263.421 148.309 263.342 148.551 263.291 149.299C263.228 150.269 263.301 150.744 263.37 151.036C263.412 151.212 263.475 151.479 263.571 151.49C263.648 151.49 263.715 151.324 263.814 150.996C264.024 150.259 264.119 149.493 264.094 148.727V148.727Z" fill="url(#paint54_linear)"/>
<path d="M268.038 156.83C267.141 157.007 264.963 157.528 264.963 157.528C264.963 157.528 266.383 152.98 263.714 150.924C263.611 150.419 263.592 149.9 263.658 149.388C263.711 148.978 263.818 148.577 263.977 148.195C265.102 148.821 267.577 150.93 268.038 156.83Z" fill="url(#paint55_linear)"/>
<path d="M286.795 157.839C286.795 157.839 286.681 155.433 282.869 155.476C282.269 155.921 282.24 157.884 282.24 157.884L286.795 157.839Z" fill="url(#paint56_linear)"/>
<path d="M290.194 205.226L279.756 211.385L273.49 188.127L283.839 156.999L286.792 157.838L291.295 202.775C291.4 203.796 290.96 204.775 290.194 205.226Z" fill="url(#paint57_radial)"/>
<path style="mix-blend-mode:multiply" opacity="0.3" d="M273.49 188.127L283.839 156.999L286.792 157.838C286.063 160.602 285.713 165.092 285.549 167.592C284.85 178.222 282.533 181.172 283.655 188.584C284.589 194.754 286.63 195.611 286.452 199.76C286.258 204.278 283.631 208.017 280.518 210.931L279.753 211.386L273.49 188.127Z" fill="url(#paint58_linear)"/>
<path d="M283.839 157L228.318 157.581L219.88 205.398L279.756 211.384L283.839 157Z" fill="url(#paint59_linear)"/>
<path style="mix-blend-mode:multiply" opacity="0.2" d="M228.318 157.581L246.645 157.389C247.104 158.724 247.646 160.028 248.269 161.295C256.601 178.23 275.97 180.417 275.617 183.24C275.087 187.458 232.55 181.348 231.489 187.005C230.978 189.73 239.78 196.04 249.072 198.517C260.323 201.516 268.68 198.009 274.283 204.554C276.188 206.779 277.029 209.367 277.441 211.115L219.886 205.398L228.318 157.581Z" fill="url(#paint60_linear)"/>
<path d="M282.869 155.476C283.513 155.469 284.415 155.378 285.397 155.945C285.594 156.059 285.78 156.19 285.955 156.336L285.5 156.18C284.772 155.974 283.771 156.269 283.397 157.004C282.937 157.913 282.773 159.989 282.671 161.019C282.386 163.95 280.634 182.166 280.634 182.166C280.503 183.7 279.345 184.858 277.978 184.821L226.548 181.888C226.16 181.881 225.784 181.746 225.48 181.505C224.828 180.985 224.533 180.084 224.685 179.234L227.216 158.185C227.43 156.974 228.351 156.095 229.416 156.082L282.869 155.476Z" fill="url(#paint61_linear)"/>
<path d="M282.3 155.482C282.944 155.474 283.708 155.378 284.561 155.596C284.788 155.655 285.16 155.764 285.322 155.9C285.322 155.9 283.513 155.487 282.824 157.009C282.407 157.936 282.2 159.991 282.099 161.021C281.814 163.951 280.063 182.162 280.063 182.162C279.932 183.696 278.775 184.853 277.409 184.817L225.447 183.454C225.059 183.446 224.685 183.311 224.381 183.07C223.729 182.549 223.435 181.649 223.586 180.799L226.677 158.199C226.891 156.987 227.813 156.108 228.877 156.097L282.3 155.482Z" fill="url(#paint62_radial)"/>
<path style="mix-blend-mode:multiply" opacity="0.1" d="M223.591 180.793L226.683 158.193C226.896 156.981 227.818 156.102 228.883 156.091L282.3 155.488C282.944 155.48 283.708 155.383 284.561 155.601C284.788 155.66 285.16 155.769 285.322 155.905C285.322 155.905 283.513 155.492 282.823 157.014C282.751 157.182 282.691 157.354 282.643 157.531C277.43 157.791 272.248 157.694 267.096 158.083C256.994 158.826 246.891 158.923 237.568 163.087C234.604 164.411 232.578 169.094 233.38 171.248C233.958 172.803 235.934 172.676 236.624 174.72C237.351 176.872 235.609 178.333 236.339 179.843C237.105 181.427 239.435 180.679 243.219 181.823C244.887 182.333 246.472 183.082 247.925 184.046L225.451 183.451C225.063 183.443 224.688 183.309 224.384 183.067C223.735 182.551 223.44 181.642 223.591 180.793Z" fill="url(#paint63_linear)"/>
<path d="M248.036 187.802L254.542 189.441L255.233 189.503C255.928 189.566 256.527 188.96 256.558 188.155L256.845 180.546C256.875 179.742 256.324 179.07 255.627 179.062L254.933 179.051L248.389 179.886C247.767 179.875 247.242 179.536 247.214 180.288L246.947 187.384C246.915 188.135 247.415 187.747 248.036 187.802Z" fill="url(#paint64_linear)"/>
<path d="M247.543 188.848L254.751 189.5C255.446 189.562 256.044 188.956 256.075 188.152L256.362 180.543C256.392 179.739 255.841 179.067 255.144 179.059L247.914 178.937C247.292 178.927 246.765 179.533 246.736 180.284L246.469 187.38C246.441 188.133 246.921 188.797 247.543 188.848Z" fill="url(#paint65_radial)"/>
<defs>
<linearGradient id="paint0_linear" x1="69.8888" y1="25.4026" x2="128.362" y2="309.06" gradientUnits="userSpaceOnUse">
<stop stop-color="#D8DEE8"/>
<stop offset="1" stop-color="white"/>
</linearGradient>
<linearGradient id="paint1_linear" x1="53.7635" y1="35.9885" x2="147.038" y2="35.9885" gradientUnits="userSpaceOnUse">
<stop stop-color="#444B8C"/>
<stop offset="1" stop-color="#26264F"/>
</linearGradient>
<linearGradient id="paint2_linear" x1="147.676" y1="282.751" x2="127.327" y2="291.298" gradientUnits="userSpaceOnUse">
<stop stop-color="#40447E"/>
<stop offset="1" stop-color="#3C3B6B"/>
</linearGradient>
<linearGradient id="paint3_linear" x1="282910" y1="306619" x2="253837" y2="324917" gradientUnits="userSpaceOnUse">
<stop stop-color="#40447E"/>
<stop offset="1" stop-color="#3C3B6B"/>
</linearGradient>
<linearGradient id="paint4_linear" x1="130665" y1="311423" x2="457158" y2="311423" gradientUnits="userSpaceOnUse">
<stop stop-color="#40447E"/>
<stop offset="1" stop-color="#3C3B6B"/>
</linearGradient>
<linearGradient id="paint5_linear" x1="329878" y1="201397" x2="275132" y2="359802" gradientUnits="userSpaceOnUse">
<stop stop-color="#E38DDD"/>
<stop offset="1" stop-color="#9571F6"/>
</linearGradient>
<linearGradient id="paint6_linear" x1="196827" y1="76617.1" x2="937772" y2="76617.1" gradientUnits="userSpaceOnUse">
<stop stop-color="#40447E"/>
<stop offset="1" stop-color="#3C3B6B"/>
</linearGradient>
<linearGradient id="paint7_linear" x1="197488" y1="50698.4" x2="595253" y2="50698.4" gradientUnits="userSpaceOnUse">
<stop stop-color="#40447E"/>
<stop offset="1" stop-color="#3C3B6B"/>
</linearGradient>
<linearGradient id="paint8_linear" x1="80523.7" y1="105282" x2="79987.8" y2="113435" gradientUnits="userSpaceOnUse">
<stop stop-color="#685C49"/>
<stop offset="1" stop-color="#736765"/>
</linearGradient>
<linearGradient id="paint9_linear" x1="39468.8" y1="89908.7" x2="38677.1" y2="96811.2" gradientUnits="userSpaceOnUse">
<stop stop-color="#685C49"/>
<stop offset="1" stop-color="#736765"/>
</linearGradient>
<linearGradient id="paint10_linear" x1="8511.61" y1="25304.3" x2="8222.91" y2="27221.7" gradientUnits="userSpaceOnUse">
<stop stop-color="#685C49"/>
<stop offset="1" stop-color="#736765"/>
</linearGradient>
<linearGradient id="paint11_linear" x1="7452.5" y1="27927.3" x2="7053.55" y2="30016.4" gradientUnits="userSpaceOnUse">
<stop stop-color="#685C49"/>
<stop offset="1" stop-color="#736765"/>
</linearGradient>
<linearGradient id="paint12_linear" x1="97.1042" y1="119.118" x2="140.771" y2="119.118" gradientUnits="userSpaceOnUse">
<stop stop-color="#444B8C"/>
<stop offset="1" stop-color="#3E4177"/>
</linearGradient>
<linearGradient id="paint13_linear" x1="13355.4" y1="6283.53" x2="13344.2" y2="6762.15" gradientUnits="userSpaceOnUse">
<stop stop-color="#685C49"/>
<stop offset="1" stop-color="#736765"/>
</linearGradient>
<linearGradient id="paint14_linear" x1="203.53" y1="88.7094" x2="150.993" y2="110.225" gradientUnits="userSpaceOnUse">
<stop stop-color="#311944"/>
<stop offset="1" stop-color="#A03976"/>
</linearGradient>
<radialGradient id="paint15_radial" cx="0" cy="0" r="1" gradientUnits="userSpaceOnUse" gradientTransform="translate(175.065 10.8179) rotate(-22.0987) scale(25.7993 39.3579)">
<stop stop-color="#FFB934"/>
<stop offset="1" stop-color="#FF8625"/>
</radialGradient>
<radialGradient id="paint16_radial" cx="0" cy="0" r="1" gradientUnits="userSpaceOnUse" gradientTransform="translate(117.607 10.8179) rotate(-10.9766) scale(50.9737 41.7014)">
<stop stop-color="#FFB934"/>
<stop offset="1" stop-color="#FF8625"/>
</radialGradient>
<radialGradient id="paint17_radial" cx="0" cy="0" r="1" gradientUnits="userSpaceOnUse" gradientTransform="translate(134.283 10.8179) rotate(-15.5278) scale(36.2553 40.9281)">
<stop stop-color="#FFB934"/>
<stop offset="1" stop-color="#FF8625"/>
</radialGradient>
<radialGradient id="paint18_radial" cx="0" cy="0" r="1" gradientUnits="userSpaceOnUse" gradientTransform="translate(237.39 10.8179) rotate(-10.9766) scale(50.9737 41.7014)">
<stop stop-color="#FFB934"/>
<stop offset="1" stop-color="#FF8625"/>
</radialGradient>
<radialGradient id="paint19_radial" cx="0" cy="0" r="1" gradientUnits="userSpaceOnUse" gradientTransform="translate(217.9 10.8179) rotate(-15.5278) scale(36.2553 40.9281)">
<stop stop-color="#FFB934"/>
<stop offset="1" stop-color="#FF8625"/>
</radialGradient>
<linearGradient id="paint20_linear" x1="84287.8" y1="101363" x2="61067.4" y2="127138" gradientUnits="userSpaceOnUse">
<stop stop-color="#311944"/>
<stop offset="1" stop-color="#A03976"/>
</linearGradient>
<linearGradient id="paint21_linear" x1="19943.6" y1="47393.1" x2="19508.9" y2="51016.6" gradientUnits="userSpaceOnUse">
<stop stop-color="#685C49"/>
<stop offset="1" stop-color="#736765"/>
</linearGradient>
<linearGradient id="paint22_linear" x1="38191.8" y1="14995.1" x2="38367" y2="17755.5" gradientUnits="userSpaceOnUse">
<stop stop-color="#444B8C"/>
<stop offset="1" stop-color="#26264F"/>
</linearGradient>
<linearGradient id="paint23_linear" x1="112972" y1="176783" x2="112972" y2="122950" gradientUnits="userSpaceOnUse">
<stop stop-color="#444B8C"/>
<stop offset="1" stop-color="#26264F"/>
</linearGradient>
<linearGradient id="paint24_linear" x1="211.156" y1="268.575" x2="303.28" y2="268.575" gradientUnits="userSpaceOnUse">
<stop stop-color="#F68252"/>
<stop offset="0.04" stop-color="#F99A4D"/>
<stop offset="0.08" stop-color="#FCAD49"/>
<stop offset="0.13" stop-color="#FEBA46"/>
<stop offset="0.2" stop-color="#FFC244"/>
<stop offset="0.32" stop-color="#FFC444"/>
<stop offset="0.45" stop-color="#FDB946"/>
<stop offset="0.69" stop-color="#F99C4C"/>
<stop offset="1" stop-color="#F36F56"/>
</linearGradient>
<linearGradient id="paint25_linear" x1="257.641" y1="258.198" x2="262.498" y2="298.856" gradientUnits="userSpaceOnUse">
<stop stop-color="#FFDB44"/>
<stop offset="1" stop-color="#FEEF06"/>
</linearGradient>
<linearGradient id="paint26_linear" x1="218524" y1="17366" x2="218530" y2="18037.9" gradientUnits="userSpaceOnUse">
<stop stop-color="#FFDB44"/>
<stop offset="1" stop-color="#FEEF06"/>
</linearGradient>
<linearGradient id="paint27_linear" x1="258.833" y1="267.563" x2="257.346" y2="255.12" gradientUnits="userSpaceOnUse">
<stop stop-color="#F36F56"/>
<stop offset="0.31" stop-color="#F99C4C"/>
<stop offset="0.55" stop-color="#FDB946"/>
<stop offset="0.68" stop-color="#FFC444"/>
<stop offset="0.8" stop-color="#FFC244"/>
<stop offset="0.87" stop-color="#FEBA46"/>
<stop offset="0.92" stop-color="#FCAD49"/>
<stop offset="0.96" stop-color="#F99A4D"/>
<stop offset="1" stop-color="#F57E53"/>
</linearGradient>
<linearGradient id="paint28_linear" x1="177908" y1="40572.4" x2="242866" y2="40572.4" gradientUnits="userSpaceOnUse">
<stop stop-color="#F68252"/>
<stop offset="0.04" stop-color="#F99A4D"/>
<stop offset="0.08" stop-color="#FCAD49"/>
<stop offset="0.13" stop-color="#FEBA46"/>
<stop offset="0.2" stop-color="#FFC244"/>
<stop offset="0.32" stop-color="#FFC444"/>
<stop offset="0.45" stop-color="#FDB946"/>
<stop offset="0.69" stop-color="#F99C4C"/>
<stop offset="1" stop-color="#F36F56"/>
</linearGradient>
<linearGradient id="paint29_linear" x1="210685" y1="29065" x2="210743" y2="32837.9" gradientUnits="userSpaceOnUse">
<stop stop-color="#FFDB44"/>
<stop offset="1" stop-color="#FEEF06"/>
</linearGradient>
<linearGradient id="paint30_linear" x1="210678" y1="16861.9" x2="210684" y2="17533.7" gradientUnits="userSpaceOnUse">
<stop stop-color="#FFDB44"/>
<stop offset="1" stop-color="#FEEF06"/>
</linearGradient>
<linearGradient id="paint31_linear" x1="-76375.8" y1="6756.08" x2="-76371.4" y2="7324.45" gradientUnits="userSpaceOnUse">
<stop stop-color="#F36F56"/>
<stop offset="0.31" stop-color="#F99C4C"/>
<stop offset="0.55" stop-color="#FDB946"/>
<stop offset="0.68" stop-color="#FFC444"/>
<stop offset="0.8" stop-color="#FFC244"/>
<stop offset="0.87" stop-color="#FEBA46"/>
<stop offset="0.92" stop-color="#FCAD49"/>
<stop offset="0.96" stop-color="#F99A4D"/>
<stop offset="1" stop-color="#F57E53"/>
</linearGradient>
<linearGradient id="paint32_linear" x1="184690" y1="39410.3" x2="249647" y2="39410.3" gradientUnits="userSpaceOnUse">
<stop stop-color="#F68252"/>
<stop offset="0.04" stop-color="#F99A4D"/>
<stop offset="0.08" stop-color="#FCAD49"/>
<stop offset="0.13" stop-color="#FEBA46"/>
<stop offset="0.2" stop-color="#FFC244"/>
<stop offset="0.32" stop-color="#FFC444"/>
<stop offset="0.45" stop-color="#FDB946"/>
<stop offset="0.69" stop-color="#F99C4C"/>
<stop offset="1" stop-color="#F36F56"/>
</linearGradient>
<linearGradient id="paint33_linear" x1="217470" y1="28201.6" x2="217528" y2="31973.9" gradientUnits="userSpaceOnUse">
<stop stop-color="#FFDB44"/>
<stop offset="1" stop-color="#FEEF06"/>
</linearGradient>
<linearGradient id="paint34_linear" x1="217448" y1="16359.1" x2="217454" y2="17030.9" gradientUnits="userSpaceOnUse">
<stop stop-color="#FFDB44"/>
<stop offset="1" stop-color="#FEEF06"/>
</linearGradient>
<linearGradient id="paint35_linear" x1="-83045.3" y1="7167.19" x2="-83040.9" y2="7735.74" gradientUnits="userSpaceOnUse">
<stop stop-color="#F36F56"/>
<stop offset="0.31" stop-color="#F99C4C"/>
<stop offset="0.55" stop-color="#FDB946"/>
<stop offset="0.68" stop-color="#FFC444"/>
<stop offset="0.8" stop-color="#FFC244"/>
<stop offset="0.87" stop-color="#FEBA46"/>
<stop offset="0.92" stop-color="#FCAD49"/>
<stop offset="0.96" stop-color="#F99A4D"/>
<stop offset="1" stop-color="#F57E53"/>
</linearGradient>
<linearGradient id="paint36_linear" x1="188805" y1="38244.8" x2="253763" y2="38244.8" gradientUnits="userSpaceOnUse">
<stop stop-color="#F68252"/>
<stop offset="0.04" stop-color="#F99A4D"/>
<stop offset="0.08" stop-color="#FCAD49"/>
<stop offset="0.13" stop-color="#FEBA46"/>
<stop offset="0.2" stop-color="#FFC244"/>
<stop offset="0.32" stop-color="#FFC444"/>
<stop offset="0.45" stop-color="#FDB946"/>
<stop offset="0.69" stop-color="#F99C4C"/>
<stop offset="1" stop-color="#F36F56"/>
</linearGradient>
<linearGradient id="paint37_linear" x1="221582" y1="27338.8" x2="221641" y2="31111.2" gradientUnits="userSpaceOnUse">
<stop stop-color="#FFDB44"/>
<stop offset="1" stop-color="#FEEF06"/>
</linearGradient>
<linearGradient id="paint38_linear" x1="221566" y1="15855" x2="221572" y2="16526.8" gradientUnits="userSpaceOnUse">
<stop stop-color="#FFDB44"/>
<stop offset="1" stop-color="#FEEF06"/>
</linearGradient>
<linearGradient id="paint39_linear" x1="-87092.6" y1="7578.11" x2="-87088.2" y2="8146.6" gradientUnits="userSpaceOnUse">
<stop stop-color="#F36F56"/>
<stop offset="0.31" stop-color="#F99C4C"/>
<stop offset="0.55" stop-color="#FDB946"/>
<stop offset="0.68" stop-color="#FFC444"/>
<stop offset="0.8" stop-color="#FFC244"/>
<stop offset="0.87" stop-color="#FEBA46"/>
<stop offset="0.92" stop-color="#FCAD49"/>
<stop offset="0.96" stop-color="#F99A4D"/>
<stop offset="1" stop-color="#F57E53"/>
</linearGradient>
<linearGradient id="paint40_linear" x1="185767" y1="36987.3" x2="250725" y2="36987.3" gradientUnits="userSpaceOnUse">
<stop stop-color="#F68252"/>
<stop offset="0.04" stop-color="#F99A4D"/>
<stop offset="0.08" stop-color="#FCAD49"/>
<stop offset="0.13" stop-color="#FEBA46"/>
<stop offset="0.2" stop-color="#FFC244"/>
<stop offset="0.32" stop-color="#FFC444"/>
<stop offset="0.45" stop-color="#FDB946"/>
<stop offset="0.69" stop-color="#F99C4C"/>
<stop offset="1" stop-color="#F36F56"/>
</linearGradient>
<linearGradient id="paint41_linear" x1="218544" y1="26396.4" x2="218603" y2="30167.1" gradientUnits="userSpaceOnUse">
<stop stop-color="#FFDB44"/>
<stop offset="1" stop-color="#FEEF06"/>
</linearGradient>
<linearGradient id="paint42_linear" x1="218524" y1="15311" x2="218530" y2="15982.8" gradientUnits="userSpaceOnUse">
<stop stop-color="#FFDB44"/>
<stop offset="1" stop-color="#FEEF06"/>
</linearGradient>
<linearGradient id="paint43_linear" x1="-84105.3" y1="8019.71" x2="-84100.9" y2="8588.08" gradientUnits="userSpaceOnUse">
<stop stop-color="#F36F56"/>
<stop offset="0.31" stop-color="#F99C4C"/>
<stop offset="0.55" stop-color="#FDB946"/>
<stop offset="0.68" stop-color="#FFC444"/>
<stop offset="0.8" stop-color="#FFC244"/>
<stop offset="0.87" stop-color="#FEBA46"/>
<stop offset="0.92" stop-color="#FCAD49"/>
<stop offset="0.96" stop-color="#F99A4D"/>
<stop offset="1" stop-color="#F57E53"/>
</linearGradient>
<linearGradient id="paint44_linear" x1="177908" y1="35824.6" x2="242866" y2="35824.6" gradientUnits="userSpaceOnUse">
<stop stop-color="#F68252"/>
<stop offset="0.04" stop-color="#F99A4D"/>
<stop offset="0.08" stop-color="#FCAD49"/>
<stop offset="0.13" stop-color="#FEBA46"/>
<stop offset="0.2" stop-color="#FFC244"/>
<stop offset="0.32" stop-color="#FFC444"/>
<stop offset="0.45" stop-color="#FDB946"/>
<stop offset="0.69" stop-color="#F99C4C"/>
<stop offset="1" stop-color="#F36F56"/>
</linearGradient>
<linearGradient id="paint45_linear" x1="210688" y1="25544.9" x2="210746" y2="29317.3" gradientUnits="userSpaceOnUse">
<stop stop-color="#FFDB44"/>
<stop offset="1" stop-color="#FEEF06"/>
</linearGradient>
<linearGradient id="paint46_linear" x1="210678" y1="14806.9" x2="210684" y2="15478.7" gradientUnits="userSpaceOnUse">
<stop stop-color="#FFDB44"/>
<stop offset="1" stop-color="#FEEF06"/>
</linearGradient>
<linearGradient id="paint47_linear" x1="-76375.8" y1="8432.36" x2="-76371.4" y2="9000.85" gradientUnits="userSpaceOnUse">
<stop stop-color="#F36F56"/>
<stop offset="0.31" stop-color="#F99C4C"/>
<stop offset="0.55" stop-color="#FDB946"/>
<stop offset="0.68" stop-color="#FFC444"/>
<stop offset="0.8" stop-color="#FFC244"/>
<stop offset="0.87" stop-color="#FEBA46"/>
<stop offset="0.92" stop-color="#FCAD49"/>
<stop offset="0.96" stop-color="#F99A4D"/>
<stop offset="1" stop-color="#F57E53"/>
</linearGradient>
<linearGradient id="paint48_linear" x1="184690" y1="34659.5" x2="249647" y2="34659.5" gradientUnits="userSpaceOnUse">
<stop stop-color="#F68252"/>
<stop offset="0.04" stop-color="#F99A4D"/>
<stop offset="0.08" stop-color="#FCAD49"/>
<stop offset="0.13" stop-color="#FEBA46"/>
<stop offset="0.2" stop-color="#FFC244"/>
<stop offset="0.32" stop-color="#FFC444"/>
<stop offset="0.45" stop-color="#FDB946"/>
<stop offset="0.69" stop-color="#F99C4C"/>
<stop offset="1" stop-color="#F36F56"/>
</linearGradient>
<linearGradient id="paint49_linear" x1="217470" y1="24684.6" x2="217528" y2="28457" gradientUnits="userSpaceOnUse">
<stop stop-color="#FFDB44"/>
<stop offset="1" stop-color="#FEEF06"/>
</linearGradient>
<linearGradient id="paint50_linear" x1="217448" y1="14304.2" x2="217454" y2="14976" gradientUnits="userSpaceOnUse">
<stop stop-color="#FFDB44"/>
<stop offset="1" stop-color="#FEEF06"/>
</linearGradient>
<linearGradient id="paint51_linear" x1="-83045.3" y1="8840.15" x2="-83040.9" y2="9408.52" gradientUnits="userSpaceOnUse">
<stop stop-color="#F36F56"/>
<stop offset="0.31" stop-color="#F99C4C"/>
<stop offset="0.55" stop-color="#FDB946"/>
<stop offset="0.68" stop-color="#FFC444"/>
<stop offset="0.8" stop-color="#FFC244"/>
<stop offset="0.87" stop-color="#FEBA46"/>
<stop offset="0.92" stop-color="#FCAD49"/>
<stop offset="0.96" stop-color="#F99A4D"/>
<stop offset="1" stop-color="#F57E53"/>
</linearGradient>
<linearGradient id="paint52_linear" x1="248.537" y1="152.494" x2="243.521" y2="152.494" gradientUnits="userSpaceOnUse">
<stop stop-color="#AA80F9"/>
<stop offset="1" stop-color="#6165D7"/>
</linearGradient>
<linearGradient id="paint53_linear" x1="256.549" y1="162.679" x2="255.345" y2="144.757" gradientUnits="userSpaceOnUse">
<stop offset="0.1" stop-color="#311944"/>
<stop offset="0.27" stop-color="#371B47"/>
<stop offset="0.48" stop-color="#462150"/>
<stop offset="0.72" stop-color="#612A5F"/>
<stop offset="0.97" stop-color="#853774"/>
<stop offset="1" stop-color="#893976"/>
</linearGradient>
<linearGradient id="paint54_linear" x1="1439.87" y1="7528.49" x2="1567.9" y2="7543.18" gradientUnits="userSpaceOnUse">
<stop offset="0.1" stop-color="#311944"/>
<stop offset="0.27" stop-color="#371B47"/>
<stop offset="0.48" stop-color="#462150"/>
<stop offset="0.72" stop-color="#612A5F"/>
<stop offset="0.97" stop-color="#853774"/>
<stop offset="1" stop-color="#893976"/>
</linearGradient>
<linearGradient id="paint55_linear" x1="6334.87" y1="18138.2" x2="6507.02" y2="18138.2" gradientUnits="userSpaceOnUse">
<stop stop-color="#AA80F9"/>
<stop offset="1" stop-color="#6165D7"/>
</linearGradient>
<linearGradient id="paint56_linear" x1="282.867" y1="172.813" x2="290.736" y2="100.877" gradientUnits="userSpaceOnUse">
<stop offset="0.1" stop-color="#311944"/>
<stop offset="0.69" stop-color="#6D2F66"/>
<stop offset="1" stop-color="#893976"/>
</linearGradient>
<radialGradient id="paint57_radial" cx="0" cy="0" r="1" gradientUnits="userSpaceOnUse" gradientTransform="translate(279.971 182.198) scale(14.7511 34.9224)">
<stop stop-color="#2994FE"/>
<stop offset="0.99" stop-color="#713592"/>
</radialGradient>
<linearGradient id="paint58_linear" x1="15315.6" y1="109506" x2="21322.2" y2="111970" gradientUnits="userSpaceOnUse">
<stop stop-color="#311944"/>
<stop offset="1" stop-color="#893976"/>
</linearGradient>
<linearGradient id="paint59_linear" x1="95096.1" y1="94446.9" x2="97433.6" y2="131341" gradientUnits="userSpaceOnUse">
<stop offset="0.1" stop-color="#311944"/>
<stop offset="0.69" stop-color="#6D2F66"/>
<stop offset="1" stop-color="#893976"/>
</linearGradient>
<linearGradient id="paint60_linear" x1="80436.6" y1="113907" x2="100711" y2="130641" gradientUnits="userSpaceOnUse">
<stop stop-color="#311944"/>
<stop offset="1" stop-color="#893976"/>
</linearGradient>
<linearGradient id="paint61_linear" x1="79804.5" y1="61167.2" x2="89350.3" y2="60392.7" gradientUnits="userSpaceOnUse">
<stop offset="0.1" stop-color="#311944"/>
<stop offset="0.69" stop-color="#6D2F66"/>
<stop offset="1" stop-color="#893976"/>
</linearGradient>
<radialGradient id="paint62_radial" cx="0" cy="0" r="1" gradientUnits="userSpaceOnUse" gradientTransform="translate(246.014 169.059) scale(51.1348 18.8548)">
<stop stop-color="#2994FE"/>
<stop offset="0.99" stop-color="#713592"/>
</radialGradient>
<linearGradient id="paint63_linear" x1="97083.4" y1="78624.1" x2="95852.6" y2="54315" gradientUnits="userSpaceOnUse">
<stop stop-color="#311944"/>
<stop offset="1" stop-color="#893976"/>
</linearGradient>
<linearGradient id="paint64_linear" x1="-16687.3" y1="24240.7" x2="-13873.2" y2="22847.9" gradientUnits="userSpaceOnUse">
<stop stop-color="#FFC444"/>
<stop offset="1" stop-color="#F36F56"/>
</linearGradient>
<radialGradient id="paint65_radial" cx="0" cy="0" r="1" gradientUnits="userSpaceOnUse" gradientTransform="translate(251.801 178.649) rotate(-18.4457) scale(4.35774 5.72452)">
<stop stop-color="#FFB934"/>
<stop offset="1" stop-color="#FF8625"/>
</radialGradient>
</defs>
</svg>
